/* XPM */
static char *bomb16m[] = {
/* columns rows colors chars-per-pixel */
"16 16 2 1 ",
"D c None",
". c black",
/* pixels */
"DDDDDDD.......DD",
"DDDDD..........D",
"DDDDD..........D",
"DDD............D",
"D..............D",
"D...........D..D",
"............DDDD",
".............DDD",
".............DDD",
".............DDD",
".............DDD",
".............DDD",
".............DDD",
"D...........DDDD",
"D...........DDDD",
"DDD.......DDDDDD"
};
