/* XPM */
static char *bomb32m[] = {
/* columns rows colors chars-per-pixel */
"32 32 2 1 ",
"D c None",
". c black",
/* pixels */
"DDDDDDDDDDDDDD.......DDDDDDDDDDD",
"DDDDDDDDDDDD.............DDDDDDD",
"DDDDDDDDDDD................DDDDD",
"DDDDDDDDDDD......D.........DDDDD",
"DDDDDDDDDDD....DDDDDD.......DDDD",
"DDDDDDDDD.......DDDD........DDDD",
"DDDDDDDDD.......DDDD........DDDD",
"DDDDDDD...........DDD.......DDDD",
"DDDDDD..............DD......DDDD",
"DDDD.................DD....DDDDD",
"DDD...................DDDDDDDDDD",
"DD.....................DDDDDDDDD",
"DD.....................DDDDDDDDD",
"D.......................DDDDDDDD",
"D.......................DDDDDDDD",
".........................DDDDDDD",
".........................DDDDDDD",
".........................DDDDDDD",
".........................DDDDDDD",
".........................DDDDDDD",
".........................DDDDDDD",
".........................DDDDDDD",
".........................DDDDDDD",
".........................DDDDDDD",
"D.......................DDDDDDDD",
"D.......................DDDDDDDD",
"DD.....................DDDDDDDDD",
"DD.....................DDDDDDDDD",
"DDD...................DDDDDDDDDD",
"DDDD.................DDDDDDDDDDD",
"DDDDDD.............DDDDDDDDDDDDD",
"DDDDDDDD.........DDDDDDDDDDDDDDD"
};
