/* XPM */
static char * bomb32_xpm[] = {
"32 32 2 1",
"D	c None",
".      c #000000",
"DDDDDDDDDDDDDDDDDDDDDDDDDDDDDDDD",
"DDDDDDDDDDDDDDD.....DDDDDDDDDDDD",
"DDDDDDDDDDDDD...DDD...D.DDDDDDDD",
"DDDDDDDDDDDD..DDDDDDD..DD.DDDDDD",
"DDDDDDDDDDDD.DDDDDDDDD.D.DDDDDDD",
"DDDDDDDDDDDD.DDDDDDDD.D.DD.DDDDD",
"DDDDDDDDDD.....DDDDDDDDD.DDDDDDD",
"DDDDDDDDDD.D...DDDDDDD.DDD.DDDDD",
"DDDDDDDD...D.....DDDDDD.D.DDDDDD",
"DDDDDDD............DDDDDDDDDDDDD",
"DDDDD...............DDDDDDDDDDDD",
"DDDD.................DDDDDDDDDDD",
"DDD...DD..............DDDDDDDDDD",
"DDD..DD...............DDDDDDDDDD",
"DD...DD................DDDDDDDDD",
"DD..DD.................DDDDDDDDD",
"D...DD..................DDDDDDDD",
"D...DD..................DDDDDDDD",
"D...DD..................DDDDDDDD",
"D...DD..................DDDDDDDD",
"D...DD..................DDDDDDDD",
"D.......................DDDDDDDD",
"D.......................DDDDDDDD",
"DD.....................DDDDDDDDD",
"DD.....................DDDDDDDDD",
"DDD...................DDDDDDDDDD",
"DDD...................DDDDDDDDDD",
"DDDD.................DDDDDDDDDDD",
"DDDDD...............DDDDDDDDDDDD",
"DDDDDDD...........DDDDDDDDDDDDDD",
"DDDDDDDDD.......DDDDDDDDDDDDDDDD",
"DDDDDDDDDDDDDDDDDDDDDDDDDDDDDDDD"};