/* XPM */
static char *bomb[] ={
/*columns rows colors chars-per-pixel */
"16 16 2 1 ",
"D c None",
". c black",
/* pixels */
"DDDDDDDDDDDDDDDD",
"DDDDDDDD...D.DDD",
"DDDDDD..DDD.D.DD",
"DDDDDD..DD.D.DDD",
"DDDD.....DDDD.DD",
"DD.........DDDDD",
"DD..D......DDDDD",
"D..DD.......DDDD",
"D..D........DDDD",
"D..D........DDDD",
"D...........DDDD",
"D...........DDDD",
"DD.........DDDDD",
"DD.........DDDDD",
"DDDD.....DDDDDDD",
"DDDDDDDDDDDDDDDD"
};
