/* XPM */
static char * folder_32x32_xpm[] = {
"32 32 95 2",
"  	c None",
". 	c #000000",
"+ 	c #FFFFFF",
"@ 	c #555555",
"# 	c #FFFFFF",
"$ 	c #FFFFFF",
"% 	c #FFFFFF",
"& 	c #FFFFFF",
"* 	c #FFFFFF",
"= 	c #FFFFFF",
"- 	c #FFFFFF",
"; 	c #FFFFFF",
"> 	c #FFFFFF",
", 	c #FFFFFF",
"' 	c #FEFEFF",
") 	c #DDDDD9",
"! 	c #000000",
"~ 	c #FFFFFF",
"{ 	c #FFFFFF",
"] 	c #FFFFFF",
"^ 	c #FFFFFF",
"/ 	c #FFFFFF",
"( 	c #E7E7FF",
"_ 	c #52527B",
": 	c #555552",
"< 	c #555555",
"[ 	c #D1D1D1",
"} 	c #A4A4A4",
"| 	c #A5A5A5",
"1 	c #A8A8A6",
"2 	c #555553",
"3 	c #555555",
"4 	c #FDFDFD",
"5 	c #FEFEFE",
"6 	c #D1D1D1",
"7 	c #BBBBBB",
"8 	c #595959",
"9 	c #555555",
"0 	c #555555",
"a 	c #616161",
"b 	c #545454",
"c 	c #545454",
"d 	c #555555",
"e 	c #555555",
"f 	c #555555",
"g 	c #E9E9FF",
"h 	c #E0E0FF",
"i 	c #E1E1FF",
"j 	c #E4E4F8",
"k 	c #ECECE9",
"l 	c #B3B3FF",
"m 	c #4848FF",
"n 	c #1A1AFF",
"o 	c #1C1CFF",
"p 	c #1B1BFF",
"q 	c #2B2BE2",
"r 	c #4E4E9E",
"s 	c #8585A7",
"t 	c #2F2FA7",
"u 	c #2727A7",
"v 	c #2525A7",
"w 	c #2626A7",
"x 	c #2626A6",
"y 	c #2727A4",
"z 	c #3E3E7B",
"A 	c #A4A4A4",
"B 	c #A5A5A5",
"C 	c #A6A6A5",
"D 	c #A9A9A5",
"E 	c #7E7E7C",
"F 	c #535353",
"G 	c #555555",
"H 	c #EBEBEB",
"I 	c #C4C4C4",
"J 	c #C3C3C3",
"K 	c #C5C5C5",
"L 	c #B3B3B3",
"M 	c #8A8A8A",
"N 	c #6E6E6E",
"O 	c #545454",
"P 	c #E3E3E3",
"Q 	c #AAAAAA",
"R 	c #A8A8A8",
"S 	c #8F8F8F",
"T 	c #ACACAC",
"U 	c #A9A9A9",
"V 	c #ABABAB",
"W 	c #919191",
"X 	c #565656",
"Y 	c #ADADAD",
"Z 	c #929292",
"` 	c #DBDBDB",
" .	c #949494",
"..	c #808080",
"+.	c #000000",
"                                                                ",
"                                                                ",
"                                                                ",
"                                    = - - - - - - - - - ;       ",
"                                    ' g h i i i i i i j k )     ",
"                                  ( l m n o o o o o p q r _     ",
"    [ } | | | | | | | | | | | | 1 s t u v w w w w w w x y z 2 3 ",
"  5 6 A B B B B B B B B B B B B B C D D D D D D D D D D D E F G ",
"H I J I I I I I I I I I I I I I I I I I I I I I I I K L M N O G ",
"P Q R R R R R R R R R R R R R R R R R R R R R R R R Q S F F G G ",
"P T U Q Q Q Q Q Q Q Q Q Q Q Q Q Q Q Q Q Q Q Q Q Q Q V W X O G G ",
"P T U Q Q Q Q Q Q Q Q Q Q Q Q Q Q Q Q Q Q Q Q Q Q Q V W X O G G ",
"P T U Q Q Q Q Q Q Q Q Q Q Q Q Q Q Q Q Q Q Q Q Q Q Q V W X O G G ",
"P T U Q Q Q Q Q Q Q Q Q Q Q Q Q Q Q Q Q Q Q Q Q Q Q V W X O G G ",
"P T U Q Q Q Q Q Q Q Q Q Q Q Q Q Q Q Q Q Q Q Q Q Q Q V W X O G G ",
"P T U Q Q Q Q Q Q Q Q Q Q Q Q Q Q Q Q Q Q Q Q Q Q Q V W X O G G ",
"P T U Q Q Q Q Q Q Q Q Q Q Q Q Q Q Q Q Q Q Q Q Q Q Q V W X O G G ",
"P T U Q Q Q Q Q Q Q Q Q Q Q Q Q Q Q Q Q Q Q Q Q Q Q V W X O G G ",
"P T U Q Q Q Q Q Q Q Q Q Q Q Q Q Q Q Q Q Q Q Q Q Q Q V W X O G G ",
"P T U Q Q Q Q Q Q Q Q Q Q Q Q Q Q Q Q Q Q Q Q Q Q Q V W X O G G ",
"P T U Q Q Q Q Q Q Q Q Q Q Q Q Q Q Q Q Q Q Q Q Q Q Q V W X O G G ",
"P T U Q Q Q Q Q Q Q Q Q Q Q Q Q Q Q Q Q Q Q Q Q Q Q V W X O G G ",
"P T U Q Q Q Q Q Q Q Q Q Q Q Q Q Q Q Q Q Q Q Q Q Q Q V W X O G G ",
"P T U Q Q Q Q Q Q Q Q Q Q Q Q Q Q Q Q Q Q Q Q Q Q Q V W X O G G ",
"P T U Q Q Q Q Q Q Q Q Q Q Q Q Q Q Q Q Q Q Q Q Q Q Q V W X O G G ",
"P Y V V V V V V V V V V V V V V V V V V V V V V V V T Z X O G G ",
"`  .W W W W W W W W W W W W W W W W W W W W W W W W Z ..X O G G ",
"7 8 X X X X X X X X X X X X X X X X X X X X X X X X X X G G 9 0 ",
"    c c c c c c c c c c c c c c c c c c c c c c c c c c c d     ",
"                                                                ",
"                                                                ",
"                                                                "};
