/* XPM */
static char * lock_32x32_xpm[] = {
"32 32 78 1",
" 	c None",
".	c #6A6A6A",
"+	c #808080",
"@	c #939393",
"#	c #7E7E7E",
"$	c #767676",
"%	c #B1B1B1",
"&	c #DEDEDE",
"*	c #ABABAB",
"=	c #121212",
"-	c #222222",
";	c #E2E2E2",
">	c #E4E4E4",
",	c #C9C9C9",
"'	c #C6C6C6",
")	c #BEBEBE",
"!	c #CFCFCF",
"~	c #BCBCBC",
"{	c #6E6E6E",
"]	c #6D6D6D",
"^	c #A6A6A6",
"/	c #B2B2B2",
"(	c #949494",
"_	c #DDDDDD",
":	c #969696",
"<	c #7A7A7A",
"[	c #8A8A8A",
"}	c #CECECE",
"|	c #4D4D4D",
"1	c #646464",
"2	c #CACACA",
"3	c #525252",
"4	c #C4C4C4",
"5	c #C7C7C7",
"6	c #DFDFDF",
"7	c #6B6B6B",
"8	c #000000",
"9	c #E3E3E3",
"0	c #C2C2C2",
"a	c #C1C1C1",
"b	c #9F9F9F",
"c	c #C0C0C0",
"d	c #9D9D9D",
"e	c #868686",
"f	c #B5B5B5",
"g	c #B7B7B7",
"h	c #DADADA",
"i	c #C3C3C3",
"j	c #D9D9D9",
"k	c #CBCBCB",
"l	c #E0E0E0",
"m	c #D7D7D7",
"n	c #DCDCDC",
"o	c #989898",
"p	c #888888",
"q	c #4A4A4A",
"r	c #AEAEAE",
"s	c #929292",
"t	c #7D7D7D",
"u	c #424242",
"v	c #ACACAC",
"w	c #636363",
"x	c #5C5C5C",
"y	c #8F8F8F",
"z	c #7F7F7F",
"A	c #737373",
"B	c #858585",
"C	c #8C8C8C",
"D	c #727272",
"E	c #686868",
"F	c #5D5D5D",
"G	c #6F6F6F",
"H	c #606060",
"I	c #2E2E2E",
"J	c #AAAAAA",
"K	c #212121",
"L	c #A7A7A7",
"M	c #CDCDCD",
"           ............         ",
"           .+@@@@@@@@#$         ",
"         ...%&&&&&&&&*@=-;>     ",
"        ..+%,&'))))!&'~{]^/>    ",
"       ...@&&&*(((()&&_:@=<>>   ",
"       .[,}&'*{||||1$2_:@=<>>   ",
"       .@&&_~@3------4_:@=<>>   ",
"       .@&!:{=5;;;;;;6_:@=<>>   ",
"       .@&!(78,>9999;6_:@=<>>   ",
"       .@&!(78,90aab{,_:@=<>>   ",
"       .@&!(78,9accd.,_:@=<>>   ",
"       .@&!(78,9accd.,_:@=<>>   ",
"    ....@&!(78,9bdde.,_:@=<>'.  ",
"   .....@&!(78,;{....,_:@=<>f.  ",
"   ..g,,}&h!,ij6,,,,,j&!}4klm}  ",
"   ..,&____________________nl>  ",
"   ..,_o::::::::::::::::::pqr>  ",
"   ..,_:s[[[[[[[[[[[[[[[[[tuv>  ",
"   ..,_:[wwwwwwwwwwwwwwwwwxuv>  ",
"   ..,_:yzzzzzzzzzzzzzzzzzAuv>  ",
"   ..,_:((((((((((((((((((Buv>  ",
"   ..,_:CDDDDDDDDDDDDDDDDDEuv>  ",
"   ..,_:[11111111111111111Fuv>  ",
"   ..,_:(@@@@@@@@@@@@@@@@@Buv>  ",
"   ..,_:(@@@@@@@@@@@@@@@@@Buv>  ",
"   ..,_:[11111111111111111Fuv>  ",
"   ..,_:CDDDDDDDDDDDDDDDDDEuv>  ",
"   ..,_:((((((((((((((((((Buv>  ",
"   ..,nG777777777777777777HIJ>  ",
"   ..,nK88888888888888888888L>  ",
"   ..M;,,,,,,,,,,,,,,,,,,,,,m>  ",
"   ..}>>>>>>>>>>>>>>>>>>>>>>>>  "};
