/* XPM */
static char * logout_32x32_xpm[] = {
"32 32 46 1",
" 	c None",
".	c #6A6A6A",
"+	c #939393",
"@	c #DEDEDE",
"#	c #DDDDDD",
"$	c #DCDCDC",
"%	c #CFCFCF",
"&	c #BEBEBE",
"*	c #767676",
"=	c #AAAAAA",
"-	c #CECECE",
";	c #B2B2B2",
">	c #8C8C8C",
",	c #BDBDBD",
"'	c #9A9A9A",
")	c #BCBCBC",
"!	c #929292",
"~	c #A9A9A9",
"{	c #727272",
"]	c #A8A8A8",
"^	c #A7A7A7",
"/	c #212121",
"(	c #5C5C5C",
"_	c #686868",
":	c #ADADAD",
"<	c #BBBBBB",
"[	c #424242",
"}	c #8F8F8F",
"|	c #242424",
"1	c #676767",
"2	c #848484",
"3	c #2C2C2C",
"4	c #B8B8B8",
"5	c #7C7C7C",
"6	c #6B6B6B",
"7	c #A5A5A5",
"8	c #2A2A2A",
"9	c #272727",
"0	c #8B8B8B",
"a	c #BABABA",
"b	c #8D8D8D",
"c	c #353535",
"d	c #A6A6A6",
"e	c #B3B3B3",
"f	c #515151",
"g	c #C5C5C5",
"                                ",
"                                ",
"                                ",
"                                ",
"................................",
"++++++++++++++++++++++++++++++++",
"@@###########################$#@",
"@%&&&&&&&&&&&&&&&&&&&&&&&&&&&*=@",
"@-;>>>>>;;>;,,,'')!~;>>>>>>',{]@",
"@-^/(___:^/^,,,__<[}:__(|1_2,{]@",
"@-^/^,,,,^/^,,,__<3>,,,^3<,,,{]@",
"@-^/^,,,,4^5')6':<3>,,,^3<,,,{]@",
"@-^/^,,,,,,_578^,<3>,,,^3<,,,{]@",
"@-^/^,,,,,,69/3^,<3>,,,^3<,,,{]@",
"@-^/^,,,,,,)03a,,<3>,,,^3<,,,{]@",
"@-^/5>b),,,,>3<,,<3>,,,^3<,,,{]@",
"@-^/(_6),,,:5874,<3>,,,^3<,,,{]@",
"@-^/^,,,,,,_///^,<3>,,,^3<,,,{]@",
"@-^/^,,,,,,_578^,<3>,,,^3<,,,{]@",
"@-^/^,,,,,,_><3^,<3>,,,^3<,,,{]@",
"@-^/^,,,,,<.b<cd)<3>,,,^3<,,,{]@",
"@-^/^,,,,^3d),<.6<3>,,,^3<,,,{]@",
"@-^/5>>>;^/^,,,__<3>,,,^3<,,,{]@",
"@-:_____::_:,,,22)6',,,:6),,,{]@",
"@-,,,,,,,,,,,,,,,,,,,,,,,,,,,{]@",
"@e{{{{{{{{{{{{{{{{{{{{{{{{{{{f]@",
"@g]]]]]]]]]]]]]]]]]]]]]]]]]]]]g@",
"@@@@@@@@@@@@@@@@@@@@@@@@@@@@@@@@",
"                                ",
"                                ",
"                                ",
"                                "};
