/* XPM */
static char * settings_16x16_xpm[] = {
"16 16 12 1",
" 	c #FFFFFF",
".	c #949494",
"+	c #953E7F",
"@	c #000000",
"#	c #737373",
"$	c #BDBDBD",
"%	c #636363",
"&	c #DEDEDE",
"*	c #0000FF",
"=	c #424242",
"-	c #FFFF00",
";	c #212121",
" ..............+",
"   ..........  @",
"... ...........@",
".. .....# #....@",
"..$ ...%%% #...@",
"..%$@...#%% #..@",
"..... ...&%% #.@",
"...... .&##%%@.@",
"......***...@..@",
".....***=......@",
"....***=#-;....@",
"...***#.=--;...@",
"..***#...=--;..@",
"..**#.....=-;..@",
"..=........#...@",
"@@@@@@@@@@@@@@@@"};
