/* XPM */
static char * pref_48x48_xpm[] = {
"32 32 15 1",
" 	c None",
".	c #FFFFFF",
"+	c #000000",
"@	c #0000FF",
"#	c #949494",
"$	c #737373",
"%	c #DEDEDE",
"&	c #FFFF00",
"*	c #ADADAD",
"=	c #636363",
"-	c #BDBDBD",
";	c #212121",
">	c #424242",
",	c #00FFFF",
"'	c #FF0000",
" .............................+ ",
" .@#@#@#@#@#@#@#@#@#@#@#@#@#@#+ ",
" .#@#@#@#@#@#@#@#@#@#@#@#@#@#@+ ",
"......@#@#@#@#@#@#@#@#@#@#.....+",
".#####.@#@#@#@#@#@#@#@#@#.#####+",
".######.@#@#@#@#@#@#@#@#.######+",
".#######..........$#$...#######+",
".####.%##########$&.*$#########+",
".####+.%########$%=&.*$########+",
".###+-+.%######=;=#=&.*$#######+",
".###=+-+.%######$;=#=&.*$######+",
".####=+-++#######$;=#=&.*$#####+",
".#####=+#>.#######$;=#=&.*$####+",
".#######+#>.######=%>=*=&.*$###+",
".########+#>.####=%->;=*=&.%$##+",
".#########+#>.##=%-$$$>=#=&+###+",
".##########+#>@,%-$$$##>=%+$###+",
".###########+@,@=@;#####;+#####+",
".##########$@,*$@;>############+",
".##########@,@$@;>=############+",
".#########@,*$@;>;==;##########+",
".########@,@$@;>;$'&%;#########+",
".#######@,*$@;$=;'&'&%;########+",
".######@,@$@;$##;>'&'&%;#######+",
".#####@,*$@;$####;>'&'&%;######+",
".####@,@$@;$######;>'&'&%;#####+",
".###@@*$@;$########;>'&'&;=####+",
".###@@@@;$##########;>'&';=####+",
".###;;;;$############;>;;######+",
".####>################$$#######+",
".##############################+",
"++++++++++++++++++++++++++++++++"};
