/* XPM */
static char * themes_32x32_xpm[] = {
"32 27 304 2",
"  	c None",
". 	c #B6B6B6",
"+ 	c #B8B8B8",
"@ 	c #999999",
"# 	c #C9C9C9",
"$ 	c #CACACA",
"% 	c #CDCDCD",
"& 	c #D9D9D9",
"* 	c #D6D6D6",
"= 	c #D5D7D5",
"- 	c #D9DAD9",
"; 	c #D0D1D0",
"> 	c #BABABA",
", 	c #868686",
"' 	c #949494",
") 	c #E0E0E0",
"! 	c #C4C4C4",
"~ 	c #BCBCBC",
"{ 	c #AFAFAF",
"] 	c #ADADAD",
"^ 	c #ADACAD",
"/ 	c #B9A3B9",
"( 	c #BF9EBF",
"_ 	c #C09FC0",
": 	c #C7ABC7",
"< 	c #C0BCC0",
"[ 	c #D3D3D3",
"} 	c #E1E1E1",
"| 	c #A3A3A3",
"1 	c #8E8E8E",
"2 	c #ACACAC",
"3 	c #C1C1C1",
"4 	c #CBCBCB",
"5 	c #B7B7AB",
"6 	c #C7C797",
"7 	c #B6B6A6",
"8 	c #BEA0BE",
"9 	c #F153F1",
"0 	c #FE15FE",
"a 	c #FE17FE",
"b 	c #FB2DFB",
"c 	c #D389D3",
"d 	c #AEAEAE",
"e 	c #DCDCDC",
"f 	c #CECECE",
"g 	c #9A9A9A",
"h 	c #A8A8A8",
"i 	c #D4D4D4",
"j 	c #B5B5B2",
"k 	c #B8B8A6",
"l 	c #DEDE7A",
"m 	c #D8D882",
"n 	c #DADA7F",
"o 	c #B2B2A9",
"p 	c #BBA2BB",
"q 	c #F24FF2",
"r 	c #FE07FE",
"s 	c #FF00FF",
"t 	c #E93DE9",
"u 	c #949394",
"v 	c #BBBBBB",
"w 	c #919191",
"x 	c #D2D2D2",
"y 	c #B5B5B5",
"z 	c #B0B0AC",
"A 	c #F8F83D",
"B 	c #FCFC22",
"C 	c #FAFA35",
"D 	c #EDED5E",
"E 	c #D0D28D",
"F 	c #B0B0AB",
"G 	c #ACADAC",
"H 	c #F34DF3",
"I 	c #EE23EE",
"J 	c #CF49CF",
"K 	c #858585",
"L 	c #B1B1B1",
"M 	c #CFCFCF",
"N 	c #B1B1B2",
"O 	c #AEAEAC",
"P 	c #D9D982",
"Q 	c #FBFB2C",
"R 	c #FFFF00",
"S 	c #FFFF06",
"T 	c #ECEB5E",
"U 	c #ECBB5F",
"V 	c #B4ADA8",
"W 	c #C09EC0",
"X 	c #D781D7",
"Y 	c #C555C5",
"Z 	c #C148C1",
"` 	c #A77CA7",
" .	c #9A979A",
"..	c #A0A0A0",
"+.	c #6D6D6D",
"@.	c #B4B4B4",
"#.	c #D4D3D3",
"$.	c #B4B6B6",
"%.	c #B1AAAA",
"&.	c #B3A9A9",
"*.	c #CACB93",
"=.	c #F1F154",
"-.	c #FAFA2F",
";.	c #FFF900",
">.	c #F8C039",
",.	c #CD9890",
"'.	c #AEABAC",
").	c #ACAEAC",
"!.	c #AAAEAA",
"~.	c #9CA19C",
"{.	c #999E99",
"].	c #A7A8A7",
"^.	c #959595",
"/.	c #666666",
"(.	c #909090",
"_.	c #8F8F8F",
":.	c #DDDDDD",
"<.	c #B6B4B4",
"[.	c #C59898",
"}.	c #D38989",
"|.	c #D58686",
"1.	c #B5A9A7",
"2.	c #B1B2AA",
"3.	c #D3D389",
"4.	c #EAEA64",
"5.	c #E9CE66",
"6.	c #C99B94",
"7.	c #A2A2A2",
"8.	c #787878",
"9.	c #757575",
"0.	c #939393",
"a.	c #CDCECE",
"b.	c #B3A7A7",
"c.	c #F15353",
"d.	c #F73F3F",
"e.	c #DD7B7B",
"f.	c #D98181",
"g.	c #B7A6A5",
"h.	c #AFABAC",
"i.	c #ACACAE",
"j.	c #ACADAE",
"k.	c #8E8F8E",
"l.	c #778179",
"m.	c #77847A",
"n.	c #79857C",
"o.	c #979897",
"p.	c #878787",
"q.	c #626262",
"r.	c #BABBBB",
"s.	c #D68585",
"t.	c #FD1C1C",
"u.	c #FF0202",
"v.	c #FA3434",
"w.	c #FB2A2A",
"x.	c #F73E3E",
"y.	c #D28B8B",
"z.	c #ACADAD",
"A.	c #908F90",
"B.	c #336E46",
"C.	c #1ADA70",
"D.	c #19E977",
"E.	c #34E87C",
"F.	c #BED0C2",
"G.	c #B0AFB0",
"H.	c #A7A7A7",
"I.	c #7D7D7D",
"J.	c #7F7F7F",
"K.	c #818181",
"L.	c #797979",
"M.	c #D8D9D9",
"N.	c #C6AFAF",
"O.	c #F93838",
"P.	c #FF0000",
"Q.	c #F01F1F",
"R.	c #BD8A8A",
"S.	c #8A8689",
"T.	c #01C261",
"U.	c #05F97E",
"V.	c #04F97E",
"W.	c #30F783",
"X.	c #C6DACB",
"Y.	c #B1B0B1",
"Z.	c #ABABAB",
"`.	c #9E9E9E",
" +	c #979797",
".+	c #C7C7C7",
"++	c #C2B3B3",
"@+	c #DA7F7F",
"#+	c #FF0404",
"$+	c #F12424",
"%+	c #AF7373",
"&+	c #A5A6A6",
"*+	c #AAAAB1",
"=+	c #ACACB0",
"-+	c #929198",
";+	c #9EBEA6",
">+	c #BAE5C5",
",+	c #B9E4C4",
"'+	c #B9E3C4",
")+	c #BAC1BC",
"!+	c #C2C2C2",
"~+	c #C0BFC0",
"{+	c #929292",
"]+	c #BDBDBD",
"^+	c #DADADA",
"/+	c #B5A7A7",
"(+	c #C29999",
"_+	c #E03D3D",
":+	c #E12F2F",
"<+	c #AF7474",
"[+	c #A5A5A5",
"}+	c #ADADAE",
"|+	c #9797C6",
"1+	c #8383D8",
"2+	c #8383D7",
"3+	c #8C8CD1",
"4+	c #8F8FC8",
"5+	c #B2B1AF",
"6+	c #B7B5B7",
"7+	c #B7B4B7",
"8+	c #ADAFAB",
"9+	c #9EC99C",
"0+	c #A3CFA3",
"a+	c #B2BDB2",
"b+	c #808080",
"c+	c #D0D0D0",
"d+	c #AAAAAA",
"e+	c #908E8E",
"f+	c #8E8C8C",
"g+	c #A7A6A6",
"h+	c #9494C9",
"i+	c #4F4FF2",
"j+	c #6969E7",
"k+	c #6868E8",
"l+	c #5050F2",
"m+	c #7C7CDC",
"n+	c #9C9CC1",
"o+	c #9A9CC3",
"p+	c #7CBCAE",
"q+	c #39D599",
"r+	c #1FFA37",
"s+	c #72E272",
"t+	c #A9B3A9",
"u+	c #8A8A8A",
"v+	c #8B8B8B",
"w+	c #9B9BC3",
"x+	c #7979DE",
"y+	c #3D3DF7",
"z+	c #0000FF",
"A+	c #5454F1",
"B+	c #A3A3B9",
"C+	c #A2A6B8",
"D+	c #4FADC4",
"E+	c #00BBBC",
"F+	c #00BDBA",
"G+	c #00D2A0",
"H+	c #40F642",
"I+	c #A3B6A3",
"J+	c #817F81",
"K+	c #C8C8C8",
"L+	c #8888D4",
"M+	c #2E2EFB",
"N+	c #0C0CFE",
"O+	c #0707FE",
"P+	c #3737EA",
"Q+	c #9F9FB6",
"R+	c #9DB7A8",
"S+	c #32A5CD",
"T+	c #21AACB",
"U+	c #58A7C8",
"V+	c #60E76E",
"W+	c #96C496",
"X+	c #929492",
"Y+	c #9C9C9C",
"Z+	c #9B9B9B",
"`+	c #7A7A7A",
" @	c #AAAAAF",
".@	c #9090CD",
"+@	c #7272E3",
"@@	c #1D1DFD",
"#@	c #1212F2",
"$@	c #5B5BC6",
"%@	c #8B8BB0",
"&@	c #A7A7B5",
"*@	c #8A8CD1",
"=@	c #8B8DD0",
"-@	c #A7A8B3",
";@	c #AAACAA",
">@	c #8C8C8C",
",@	c #9D9D9D",
"'@	c #6C6C6C",
")@	c #A0A0AC",
"!@	c #9F9FBF",
"~@	c #9F9FBA",
"{@	c #A5A5A7",
"]@	c #AEAEAD",
"^@	c #A7A7A6",
"/@	c #989897",
"(@	c #717171",
"_@	c #898989",
":@	c #888888",
"<@	c #888886",
"[@	c #B2B2B2",
"}@	c #969696",
"                                                                ",
"                                                                ",
"                                                                ",
"                              . + + + + + + @                   ",
"                      @ # $ % & * * * * = - ; $ > ,             ",
"                  ' $ ) ! ~ > { ] ] ^ / ( _ : < [ } | 1         ",
"              2 3 ) 4 5 6 6 7 ] ] ] 8 9 0 a b c d + e f g       ",
"            h i 4 j k l m m n o ] p q r s s s t u ] d v w       ",
"          { x y z m A B C D E F G p H s s s I J u ] ] ] K {     ",
"        L M N O P Q R R S T U V ] ] W X Y Z `  .2 ] ] ..+.{     ",
"      @.#.$.%.&.*.=.-.R ;.>.,.'.] ] ).!.~.{.].d ] h ^./.(.      ",
"    _.:.<.[.}.|.1.2.3.4.5.6.] ] ] ] ] ] ] ] ] ] 7.8.9.0.        ",
"    ! a.b.c.d.e.f.g.h.i.j.] ] 2 k.l.m.n.o.2 ] 7.p.'             ",
"  q.& r.s.t.u.v.w.x.y.z.] ] d A.B.C.D.E.F.G.H.I.L     J.K.L.    ",
"  q.M.N.e.O.P.P.P.Q.R.] ] ] d S.T.U.V.W.X.Y.Z.`.0.   +v .++ >   ",
"  q.M.++@+d.#+P.$+%+&+i.*+*+=+-+;+>+,+'+)+d { !+~+3 4 > H.{+]+  ",
"  q.^+r./+(+_+:+<+[+}+|+1+2+3+4+5+6+6+7+d O 8+9+0+a+@.d b+[+    ",
"    3 c+] d+e+f+g+}+h+i+j+k+l+m+n+] ] ] ] o+p+q+r+s+t+g u+      ",
"    v+e y 2 { d O w+x+y+z+z+z+z+A+B+] ] C+D+E+F+G+H+I+J+`.      ",
"      . K+^.`.2 ] i.L+M+N+z+z+O+P+Q+] ] R+S+T+U+V+W+X+Y+        ",
"          Z+_.`+7.2  @.@+@@@#@$@%@H.] ] &@*@=@-@;@>@,@>         ",
"            + ] b+'@1 7.)@!@~@{@]@] ] ] ] ] ^@/@(@..v           ",
"                y y .._@:@<@<@:@p.p.p.p.p.p.:@^.y >             ",
"                        [@ +}@}@}@}@}@}@}@}@L                   ",
"                                                                ",
"                                                                ",
"                                                                "};
