/* XPM */
static char * themes_16x16_xpm[] = {
"16 14 111 2",
"  	c None",
". 	c #B7B7B7",
"+ 	c #C6C6C7",
"@ 	c #CACACA",
"# 	c #CBC9CB",
"$ 	c #CFC9CF",
"% 	c #CAC7CA",
"& 	c #BFBFBF",
"* 	c #B3B3B3",
"= 	c #CCCCCC",
"- 	c #C5C5B3",
"; 	c #CACA93",
"> 	c #B8B8A4",
", 	c #B0ABB0",
"' 	c #E174E1",
") 	c #FE18FE",
"! 	c #EA5FEA",
"~ 	c #B2AEB2",
"{ 	c #CBCBCB",
"] 	c #B2B2B2",
"^ 	c #C0C0BF",
"/ 	c #CFCF90",
"( 	c #F9F935",
"_ 	c #F3F34F",
": 	c #C6C198",
"< 	c #B5A7B5",
"[ 	c #EF57EF",
"} 	c #F423F4",
"| 	c #D455D4",
"1 	c #A6A1A6",
"2 	c #ABABAB",
"3 	c #979797",
"4 	c #B3B2B2",
"5 	c #C3C0C0",
"6 	c #B8A8A5",
"7 	c #D9D981",
"8 	c #F8F83A",
"9 	c #F5DA45",
"0 	c #BFA69E",
"a 	c #ADADAD",
"b 	c #ACACAC",
"c 	c #A0A0A0",
"d 	c #AAAAAA",
"e 	c #A6A6A6",
"f 	c #848484",
"g 	c #989898",
"h 	c #C7C7C7",
"i 	c #D78787",
"j 	c #EB6363",
"k 	c #CD9190",
"l 	c #B4AEA8",
"m 	c #B0AEAB",
"n 	c #829186",
"o 	c #799680",
"p 	c #A4A6A4",
"q 	c #A5A5A5",
"r 	c #919191",
"s 	c #CEC2C2",
"t 	c #EB6464",
"u 	c #FE0B0B",
"v 	c #F42C2C",
"w 	c #B89C9C",
"x 	c #9C9E9D",
"y 	c #39D977",
"z 	c #4AF489",
"A 	c #B7C6BB",
"B 	c #929192",
"C 	c #B9B9B9",
"D 	c #C9C7C7",
"E 	c #C49999",
"F 	c #E14343",
"G 	c #B38989",
"H 	c #A1A1BA",
"I 	c #8A8AD2",
"J 	c #9091C8",
"K 	c #B2B6B5",
"L 	c #B7BCB8",
"M 	c #AFB0AF",
"N 	c #A7BDA7",
"O 	c #ACC7AC",
"P 	c #969696",
"Q 	c #C2C2C2",
"R 	c #B1B1B1",
"S 	c #A8A9A9",
"T 	c #A5A5B6",
"U 	c #6767E8",
"V 	c #2F2FFB",
"W 	c #3232FA",
"X 	c #ACACAE",
"Y 	c #88AABC",
"Z 	c #2EBFB6",
"` 	c #41E47C",
" .	c #94A494",
"..	c #9F9E9F",
"+.	c #909090",
"@.	c #A7A7A8",
"#.	c #9292CB",
"$.	c #4B4BF3",
"%.	c #3D3DE6",
"&.	c #9191B8",
"*.	c #ACADAD",
"=.	c #92A0C1",
"-.	c #8AA0C3",
";.	c #96AD98",
">.	c #A4A5A4",
",.	c #9F9F9F",
"'.	c #969695",
").	c #919196",
"!.	c #929295",
"~.	c #959595",
"{.	c #959594",
"                                ",
"                                ",
"          . + @ @ # $ % &       ",
"      * = - ; > , ' ) ! ~ {     ",
"    ] ^ / ( _ : < [ } | 1 2 3   ",
"  4 5 6 7 8 9 0 a b c d e f g   ",
"  h i j k l m d n o p q r       ",
"  s t u v w a x y z A q B b C   ",
"  D E F G H I J K L M N O ] P   ",
"  Q R S T U V W I X Y Z `  ...  ",
"    e +.@.#.$.%.&.*.=.-.;.>.    ",
"        ,.'.).!.~.~.{.{.e       ",
"                                ",
"                                "};
