/* XPM */
static char * themes_48x48_xpm[] = {
"48 41 489 2",
"  	c None",
". 	c #565656",
"+ 	c #B2B2B2",
"@ 	c #C2C2C2",
"# 	c #C1C1C1",
"$ 	c #A7A7A7",
"% 	c #858585",
"& 	c #B3B3B3",
"* 	c #DADADA",
"= 	c #EAEAEA",
"- 	c #E7E7E7",
"; 	c #EBEBEB",
"> 	c #D1D1D1",
", 	c #ADADAD",
"' 	c #929292",
") 	c #A3A3A3",
"! 	c #B7B7B7",
"~ 	c #ECECEC",
"{ 	c #EDEDED",
"] 	c #CDCDCD",
"^ 	c #B1B1B1",
"/ 	c #ACACAC",
"( 	c #ACADAC",
"_ 	c #ABAEAB",
": 	c #ABADAB",
"< 	c #B2B4B2",
"[ 	c #D4D6D4",
"} 	c #EEEEEE",
"| 	c #E2E2E2",
"1 	c #A8A8A8",
"2 	c #909090",
"3 	c #939393",
"4 	c #F2F2F2",
"5 	c #BDBDBE",
"6 	c #B0B0B0",
"7 	c #AEAEAF",
"8 	c #AFAFAF",
"9 	c #AEAEAE",
"0 	c #AFACAF",
"a 	c #BE9FBE",
"b 	c #C19DC1",
"c 	c #C29EC2",
"d 	c #BAA6BA",
"e 	c #B1B2B1",
"f 	c #C8C8C8",
"g 	c #949494",
"h 	c #F5F5F5",
"i 	c #E0E0E0",
"j 	c #BBBBBC",
"k 	c #B4B4B0",
"l 	c #B9B9A6",
"m 	c #AFAFAB",
"n 	c #B8B8A5",
"o 	c #B0B0AA",
"p 	c #F548F5",
"q 	c #FC26FC",
"r 	c #FC28FC",
"s 	c #FD1FFD",
"t 	c #E46FE4",
"u 	c #B6A7B6",
"v 	c #B4B4B4",
"w 	c #C3C3C3",
"x 	c #F1F1F1",
"y 	c #848484",
"z 	c #DFDFDF",
"A 	c #D8D8D8",
"B 	c #BDBDBD",
"C 	c #AFAFAD",
"D 	c #C4C49A",
"E 	c #EAEA64",
"F 	c #C1C19C",
"G 	c #E9E966",
"H 	c #C8C896",
"I 	c #AEAEAC",
"J 	c #AEACAE",
"K 	c #C29CC2",
"L 	c #F545F5",
"M 	c #FE0EFE",
"N 	c #FF00FF",
"O 	c #FE19FE",
"P 	c #E46CE4",
"Q 	c #ABA9AB",
"R 	c #B6B6B6",
"S 	c #B8B8B8",
"T 	c #E1E1E1",
"U 	c #D2D2D2",
"V 	c #C9C9C9",
"W 	c #BABABB",
"X 	c #AFAFAC",
"Y 	c #CBCB92",
"Z 	c #EDED5E",
"` 	c #CCCC91",
" .	c #E6E66B",
"..	c #C9C994",
"+.	c #ABABAE",
"@.	c #ACAEAC",
"#.	c #C29BC2",
"$.	c #FE0BFE",
"%.	c #E03EE0",
"&.	c #858285",
"*.	c #ABABAB",
"=.	c #B9B9B9",
"-.	c #626262",
";.	c #8C8C8C",
">.	c #DDDDDD",
",.	c #CACACA",
"'.	c #B5B5B5",
").	c #ADADAF",
"!.	c #D1D18B",
"~.	c #F0F057",
"{.	c #F4F449",
"].	c #FCFC26",
"^.	c #F2F251",
"/.	c #FDFD20",
"(.	c #F0F055",
"_.	c #D1D18C",
":.	c #B5B5A7",
"<.	c #ACACAD",
"[.	c #C698C6",
"}.	c #FD1BFD",
"|.	c #FF01FF",
"1.	c #DD34DD",
"2.	c #7B787B",
"3.	c #878787",
"4.	c #8F8F8F",
"5.	c #969696",
"6.	c #CCCCCC",
"7.	c #D2D28A",
"8.	c #F5F545",
"9.	c #FFFF00",
"0.	c #FCFC25",
"a.	c #D7D784",
"b.	c #E1E275",
"c.	c #C4C599",
"d.	c #ACABAE",
"e.	c #B5A7B5",
"f.	c #D586D5",
"g.	c #FD21FD",
"h.	c #DA39DA",
"i.	c #A84FA8",
"j.	c #A56EA5",
"k.	c #9F9E9F",
"l.	c #7B7B7B",
"m.	c #8D8D8D",
"n.	c #BFBFBF",
"o.	c #9E9E9E",
"p.	c #D0D0D0",
"q.	c #D4D488",
"r.	c #F6F644",
"s.	c #FDFD1D",
"t.	c #E7E76A",
"u.	c #F9BC36",
"v.	c #D0AC8D",
"w.	c #ABADAF",
"x.	c #B3A9B3",
"y.	c #D28BD2",
"z.	c #D385D3",
"A.	c #BE5ABE",
"B.	c #B848B8",
"C.	c #B947B9",
"D.	c #A677A6",
"E.	c #8F958F",
"F.	c #9A9D9A",
"G.	c #9B9B9B",
"H.	c #5C5C5C",
"I.	c #A2A2A2",
"J.	c #D9D9D9",
"K.	c #ABAEAE",
"L.	c #ADAEAD",
"M.	c #D0D08D",
"N.	c #F4F44B",
"O.	c #FFFD00",
"P.	c #FFCA00",
"Q.	c #E68C6C",
"R.	c #BE9C9F",
"S.	c #ACAEAE",
"T.	c #ABAFAB",
"U.	c #A9ADA9",
"V.	c #909590",
"W.	c #888D88",
"X.	c #9D9F9D",
"Y.	c #8E8E8E",
"Z.	c #767676",
"`.	c #CFCFCF",
" +	c #DCDBDB",
".+	c #ABAFAF",
"++	c #AFABAB",
"@+	c #CD9090",
"#+	c #B5A7A7",
"$+	c #AAACAF",
"%+	c #CFCF8E",
"&+	c #E4E470",
"*+	c #EFEF58",
"=+	c #FFFA00",
"-+	c #FECD0D",
";+	c #E78369",
">+	c #BBA0A2",
",+	c #8A8A8A",
"'+	c #454545",
")+	c #686868",
"!+	c #A1A1A1",
"~+	c #555555",
"{+	c #B3B4B4",
"]+	c #B4A7A7",
"^+	c #C99494",
"/+	c #E56E6E",
"(+	c #D28A8A",
"_+	c #B6A7A6",
":+	c #ABADAE",
"<+	c #ABABAF",
"[+	c #C7C796",
"}+	c #EBEB62",
"|+	c #EAEB63",
"1+	c #EADF63",
"2+	c #E77E6A",
"3+	c #B9A3A4",
"4+	c #A9A9A9",
"5+	c #676767",
"6+	c #6E6E6E",
"7+	c #727272",
"8+	c #A4A4A4",
"9+	c #AAADAD",
"0+	c #C49A9A",
"a+	c #FC2525",
"b+	c #FA3333",
"c+	c #CF8E8E",
"d+	c #E66C6C",
"e+	c #AEACAC",
"f+	c #A6A6A6",
"g+	c #9C9B9B",
"h+	c #9C9A9C",
"i+	c #9C9B9C",
"j+	c #AAAAAA",
"k+	c #6C6C6C",
"l+	c #BCBCBC",
"m+	c #D5D5D5",
"n+	c #B5B6B6",
"o+	c #B0AAAA",
"p+	c #CE8F8F",
"q+	c #FD1E1E",
"r+	c #FF0505",
"s+	c #FA2F2F",
"t+	c #CF8D8D",
"u+	c #EC6161",
"v+	c #DA7F7F",
"w+	c #BAA3A3",
"x+	c #B6A6A6",
"y+	c #7F7E7F",
"z+	c #2E4B36",
"A+	c #317045",
"B+	c #3A724B",
"C+	c #808782",
"D+	c #A5A4A5",
"E+	c #757575",
"F+	c #D7D7D7",
"G+	c #DCDCDC",
"H+	c #CA9393",
"I+	c #FA3030",
"J+	c #FF0404",
"K+	c #FF0000",
"L+	c #FB2E2E",
"M+	c #FD1B1B",
"N+	c #FC2727",
"O+	c #E07777",
"P+	c #ACADAD",
"Q+	c #807F80",
"R+	c #2D3C31",
"S+	c #1CA254",
"T+	c #16EF7A",
"U+	c #3AEE81",
"V+	c #C3DCC9",
"W+	c #BCBABC",
"X+	c #8B8B8B",
"Y+	c #737373",
"Z+	c #6F6F6F",
"`+	c #DBDBDB",
" @	c #FD2121",
".@	c #FF0202",
"+@	c #FE0000",
"@@	c #E17171",
"#@	c #7A7579",
"$@	c #0CA251",
"%@	c #16EF7B",
"&@	c #15F87F",
"*@	c #3BF786",
"=@	c #C9E3CF",
"-@	c #BEBCBE",
";@	c #777777",
">@	c #6A6A6A",
",@	c #BABABA",
"'@	c #DADCDC",
")@	c #CC8C8C",
"!@	c #E27373",
"~@	c #D48888",
"{@	c #FD1C1C",
"]@	c #D43B3B",
"^@	c #9E8383",
"/@	c #7B7579",
"(@	c #17AE59",
"_@	c #22FA82",
":@	c #22F881",
"<@	c #41F687",
"[@	c #C8E2CE",
"}@	c #7D7D7D",
"|@	c #707070",
"1@	c #C5C5C5",
"2@	c #C7C7C7",
"3@	c #B8A1A1",
"4@	c #D68585",
"5@	c #EF5858",
"6@	c #FF0707",
"7@	c #D13C3C",
"8@	c #9D7D7D",
"9@	c #A1A4A4",
"0@	c #ADADAC",
"a@	c #AEAEAD",
"b@	c #898787",
"c@	c #93AD9A",
"d@	c #BFE8C9",
"e@	c #BEE6C8",
"f@	c #BEE5C8",
"g@	c #BDC6BF",
"h@	c #B2B1B2",
"i@	c #A9ACAC",
"j@	c #D38989",
"k@	c #DA8080",
"l@	c #FD2424",
"m@	c #D03D3D",
"n@	c #9F7E7E",
"o@	c #A0A3A3",
"p@	c #A4A4B9",
"q@	c #7D7DDC",
"r@	c #A6A6B7",
"s@	c #7E7EDB",
"t@	c #A1A1BD",
"u@	c #8989D3",
"v@	c #8686C1",
"w@	c #AFAEAD",
"x@	c #C5C2C4",
"y@	c #C4C1C4",
"z@	c #C3C0C3",
"A@	c #B0AEB0",
"B@	c #BAB7BA",
"C@	c #C5C2C5",
"D@	c #C4C4C4",
"E@	c #A0A0A0",
"F@	c #AFA4A4",
"G@	c #C15353",
"H@	c #C34444",
"I@	c #C24545",
"J@	c #9E7E7E",
"K@	c #AEAEAB",
"L@	c #A2A2BB",
"M@	c #7F7FDA",
"N@	c #9C9CC2",
"O@	c #B0ABAE",
"P@	c #9DC29B",
"Q@	c #7BDE77",
"R@	c #7ADC7A",
"S@	c #83D583",
"T@	c #AAAFAA",
"U@	c #ACABAC",
"V@	c #888C8C",
"W@	c #848989",
"X@	c #A3A4A4",
"Y@	c #A1A1BC",
"Z@	c #7070E4",
"`@	c #3F3FF7",
" #	c #3535F9",
".#	c #7C7CDD",
"+#	c #4646F5",
"@#	c #6F6FE5",
"##	c #9B9BC3",
"$#	c #9894C9",
"%#	c #88B4B3",
"&#	c #69D197",
"*#	c #00DC92",
"=#	c #00FF00",
"-#	c #2DFB2D",
";#	c #85D685",
">#	c #A8B4A8",
",#	c #ADACAD",
"'#	c #838383",
")#	c #999999",
"!#	c #E6E6E6",
"~#	c #A0A0BD",
"{#	c #8282D8",
"]#	c #5757EF",
"^#	c #0404FF",
"/#	c #0000FF",
"(#	c #6262EB",
"_#	c #9C9CC1",
":#	c #ADADAE",
"<#	c #9A97C5",
"[#	c #5B95D4",
"}#	c #00BEBA",
"|#	c #00C0B7",
"1#	c #00AEC8",
"2#	c #00DE8D",
"3#	c #00FE1D",
"4#	c #2BFB2B",
"5#	c #A0BDA0",
"6#	c #A5A5A5",
"7#	c #8B8BD1",
"8#	c #7777E0",
"9#	c #1010FE",
"0#	c #6B6BE7",
"a#	c #ACACAE",
"b#	c #6293D4",
"c#	c #00C6B0",
"d#	c #00BBBC",
"e#	c #00B4C3",
"f#	c #00CAAB",
"g#	c #00ADC9",
"h#	c #19FA3A",
"i#	c #5FEC5F",
"j#	c #A3B9A3",
"k#	c #9F9D9F",
"l#	c #787878",
"m#	c #9A9A9A",
"n#	c #9F9F9F",
"o#	c #9090CD",
"p#	c #4242F6",
"q#	c #0000F8",
"r#	c #6A6AD9",
"s#	c #61DA8A",
"t#	c #009AD7",
"u#	c #00AFC8",
"v#	c #2DBFB7",
"w#	c #499CD2",
"x#	c #47F158",
"y#	c #5EEC5F",
"z#	c #A4B7A4",
"A#	c #A0A1A0",
"B#	c #717171",
"C#	c #5A5A5A",
"D#	c #606060",
"E#	c #9D9D9D",
"F#	c #9292CB",
"G#	c #3D3DF8",
"H#	c #0D0DFE",
"I#	c #2929F8",
"J#	c #3333C6",
"K#	c #73737D",
"L#	c #6C7CDF",
"M#	c #3346F6",
"N#	c #334BF6",
"O#	c #7682DA",
"P#	c #A8ACB0",
"Q#	c #A7B5A7",
"R#	c #A7B3A7",
"S#	c #A1A2A1",
"T#	c #696969",
"U#	c #ABABAA",
"V#	c #AAAAB1",
"W#	c #A3A3B9",
"X#	c #9A9AC4",
"Y#	c #4343F6",
"Z#	c #2727FC",
"`#	c #2828FB",
" $	c #2323AF",
".$	c #7F7F9A",
"+$	c #A4A4B1",
"@$	c #A6A6B6",
"#$	c #A3A3BA",
"$$	c #A7A7B5",
"%$	c #AAA9AA",
"&$	c #A1A0A1",
"*$	c #6B6A6B",
"=$	c #BBBBBB",
"-$	c #585858",
";$	c #575757",
">$	c #828282",
",$	c #ACACAB",
"'$	c #AAAAAE",
")$	c #9E9EBF",
"!$	c #9D9DC1",
"~$	c #9D9DA9",
"{$	c #A6A6A4",
"]$	c #989898",
"^$	c #5B5B5B",
"/$	c #BEBEBE",
"($	c #636363",
"_$	c #A8A8A6",
":$	c #5F5F5F",
"<$	c #C0C0C0",
"[$	c #959595",
"}$	c #6D6D6D",
"|$	c #868686",
"                                                                                                ",
"                                                                                                ",
"                                                                                                ",
"                                                                                                ",
"                                              . . . . . . . . . .                               ",
"                                            + @ # # # # # # # # # $                             ",
"                                  % + & & & * = - - - - - - - - ; > + & ,                       ",
"                              ' ) ! ~ { ~ ~ ] ^ / , , , , ( _ : < [ { } | 1 )                   ",
"                          2 3 # 4 - 5 6 7 8 9 , , , , , 0 a b b b c d e f } ~ 1 g               ",
"                      % % > h i j k l m n o , , , , , 0 b p q r r s t u 8 v w ; x v             ",
"                    y z 4 A B v C D E F G H I , , , J K L M N N N N O P Q , 8 R S T R           ",
"                  % i U V W X m H E Y Z `  ...+., @.#.p $.N N N N N N %.&.*., , , =.' -.        ",
"                ;.>.,.'.6 ).!.~.{.].^./.(._.:.<., _ [.}.N N N N N |.N 1.2.*., , , , 3.4.        ",
"              5.A 6.^ / +.7.8.9.9.9.9.0.a.b.c.d., ( e.f.g.N N N N h.i.j.k./ , , , 9 l.m.n.      ",
"            o.U p.8 , I q.r.9.9.9.9.9.s.t.u.v.w., , @.x.y.z.A.B.C.D.E.F.9 , , , 9 G.H.3.n.      ",
"          I.p.J.9 , K.L.M.N.9.9.9.9.9.O.P.Q.R.S., , , , T.U.V.W.W.X.8 9 , , 9 , Y.-.Z.o.        ",
"        I.`. +v .+++@+#+$+%+&+*+9.9.=+-+;+>+K., , , , , , , 9 9 9 , , , , / G.,+'+)+!+          ",
"      ~+,.- {+]+^+@+/+(+_+:+<+[+}+|+1+2+3+S., , , 9 9 9 9 9 9 , , , , 9 4+Y.5+6+7+8+            ",
"      2 p.* 9+0+a+b+c+d+(+#+S.L.I I I e+, , , 9 f+g+h+h+h+i+!+j+, , 9 4+' 5+k+8 l+              ",
"    -.m+i n+o+p+q+r+s+t+u+v+w+x+, , , , , , , 1 y+z+A+A+A+B+C+D+9 , j+4.E+R =.                  ",
"    -.F+G+9+H+I+J+K+r+L+M+N+L+O+P+, , , , , 9 Q+R+S+T+T+T+U+V+W+/ 9 X+E+'.        E+Z.Y+Z+Z+    ",
"    -.F+`+*.p+ @.@K+K+K+K+K++@@@P+, , , , , 9 #@$@%@&@&@&@*@=@-@/ 9 X+;@=.    >@6+,@U w & v     ",
"    -.F+'@)@!@~@{@K+K+K+K+K+]@^@, , , , , , 9 /@(@_@:@:@:@<@[@-@/ / ,@R }@)+|@4+1@2@n.'.'.B     ",
"    -.F+`+3@4@5@6@K+K+K+K+7@8@9@, , 0@, 0@, a@b@c@d@e@e@e@f@g@h@, / =.f w w 1@U 1@R 6 4.Y.B     ",
"    -.F+`+i@w+j@k@l@K+K+m@n@o@9 I p@q@r@s@t@u@v@w@x@y@y@y@z@^ / , , A@B@C@C@D@@ + , 4.y E@      ",
"    -.A z 8 P+.+F@G@H@I@J@o@9 K@L@s@M@q@M@q@s@N@m / / / / / , , I O@P@Q@R@S@T@U@, 8 Y+3.#       ",
"      l+A ,./ , 1 V@W@W@X@9 K@Y@Z@`@q@ #.#+#@#u@##K@, , , , , K@$#%#&#*#=#-#;#>#,#5.'#)#        ",
"      . ,.!#8 9 , 9 9 9 , 0@~#{#]#^#/#/#/#/#/#/#(#_#, , , , :#<#[#}#|#1#2#3#4#5#J 5+3 #         ",
"        n.z # 6#, 9 , , , K@7#8#{#9#/#/#/#/#/#/#/#0#, , , , a#b#c#d#e#f#g#h#i#j#k#l#m#          ",
"          n.G+m.n#!+/ , , , , o#p#/#/#/#/#/#/#/#q#r#, , , , @.s#t#u#v#w#x#y#z#A#B#)             ",
"              f+C#D#E#f+*., , a#F#G# #H#/#/#q#I#J#K#, , , , a#L#M#N#O#P#Q#R#S#k+f+l+            ",
"                + / T#~+5.j+4+U#V#W#X#Y#Z#`# $.$+$f+, , , , , @$#$#$$$/ %$&$*$1 =$              ",
"                  l+9 *.l.-$;$>$/ ,$'$)$!$!$~${$a@, , , , , , , 0@0@0@]$^$>@1 =$                ",
"                      /$/ ) 8+4.($-.|@_$I I a@9 , , , , , , , , 9 Y.:$l.) $ l+                  ",
"                            <$+ m#m#[$Y+6+6+6+6+6+6+6+6+6+6+6+6+}$|$m#$ /$                      ",
"                                  <$=.[$4.4.4.4.4.4.4.4.4.4.4.4.Y.j+<$                          ",
"                                    B <$<$<$<$<$<$<$<$<$<$<$<$<$<$/$                            ",
"                                                                                                ",
"                                                                                                ",
"                                                                                                ",
"                                                                                                "};
