/* XPM */
static char * windows_32x32_xpm[] = {
"32 32 213 2",
"  	c None",
". 	c #F6F6F6",
"+ 	c #F8F8F8",
"@ 	c #DFDFDF",
"# 	c #4E4E4E",
"$ 	c #CACACA",
"% 	c #BBBBBB",
"& 	c #B8B8B8",
"* 	c #9C9C9C",
"= 	c #353535",
"- 	c #757575",
"; 	c #656565",
"> 	c #646464",
", 	c #676767",
"' 	c #848484",
") 	c #A3A3A3",
"! 	c #363636",
"~ 	c #2F2F2F",
"{ 	c #2E2E2E",
"] 	c #2D2D2D",
"^ 	c #404040",
"/ 	c #D0D0D0",
"( 	c #B0B0B0",
"_ 	c #555555",
": 	c #686868",
"< 	c #6A6A6A",
"[ 	c #5C5C5C",
"} 	c #5A5A5A",
"| 	c #5B5B5B",
"1 	c #525252",
"2 	c #424242",
"3 	c #DDDDDD",
"4 	c #B2B2B2",
"5 	c #C2C2C2",
"6 	c #C6C4C4",
"7 	c #C3C2C2",
"8 	c #C0C0C0",
"9 	c #616161",
"0 	c #636363",
"a 	c #595959",
"b 	c #434343",
"c 	c #6A6969",
"d 	c #C3C7C7",
"e 	c #839B9B",
"f 	c #899090",
"g 	c #799191",
"h 	c #8A9191",
"i 	c #BBBFBF",
"j 	c #454545",
"k 	c #B9D1D1",
"l 	c #56ECEC",
"m 	c #A5EDED",
"n 	c #55EDED",
"o 	c #A5EEEE",
"p 	c #56EDED",
"q 	c #B1C9C9",
"r 	c #3F3D3D",
"s 	c #626262",
"t 	c #696868",
"u 	c #CDD3D3",
"v 	c #B4FCFC",
"w 	c #5EFFFF",
"x 	c #9FFFFF",
"y 	c #5FFFFF",
"z 	c #9EFDFD",
"A 	c #58F7F7",
"B 	c #C3F4F4",
"C 	c #C5C7C7",
"D 	c #4B4B4B",
"E 	c #6C6C6C",
"F 	c #6B6B6B",
"G 	c #6A6868",
"H 	c #BCD3D3",
"I 	c #62FCFC",
"J 	c #9EFFFF",
"K 	c #58F6F6",
"L 	c #8FBFBF",
"M 	c #B4B5B5",
"N 	c #B0AFAF",
"O 	c #9F9F9F",
"P 	c #A2A2A2",
"Q 	c #A4A4A4",
"R 	c #9D9D9D",
"S 	c #696969",
"T 	c #D1D4D4",
"U 	c #C9FAFA",
"V 	c #63FDFD",
"W 	c #C2F3F3",
"X 	c #B5B6B6",
"Y 	c #B4B4B4",
"Z 	c #B7B7B7",
"` 	c #B6B6B6",
" .	c #A5A5A5",
"..	c #414141",
"+.	c #C9CCCC",
"@.	c #B3CBCB",
"#.	c #C4CBCB",
"$.	c #C4C7C7",
"%.	c #B9B9B9",
"&.	c #E9E9E9",
"*.	c #E3E3E3",
"=.	c #EFEFEF",
"-.	c #F2F2F2",
";.	c #EEEEEE",
">.	c #A6A6A6",
",.	c #3B3B3B",
"'.	c #DEDEDE",
").	c #454444",
"!.	c #3F3E3E",
"~.	c #AAAAAA",
"{.	c #E4E4E4",
"].	c #939393",
"^.	c #DBDBDB",
"/.	c #949494",
"(.	c #929292",
"_.	c #EDEDED",
":.	c #F7F7F7",
"<.	c #3A3A3A",
"[.	c #ADADAD",
"}.	c #F0F0F0",
"|.	c #F3F3F3",
"1.	c #FCFCFC",
"2.	c #AFAFAF",
"3.	c #FFFFFF",
"4.	c #EBEBEB",
"5.	c #E5E5E5",
"6.	c #A7A7A7",
"7.	c #8F8F8F",
"8.	c #1F1F1F",
"9.	c #B3B3B3",
"0.	c #BABABA",
"a.	c #535353",
"b.	c #E1E1E1",
"c.	c #BCBCBC",
"d.	c #B1B1B1",
"e.	c #9B9B9B",
"f.	c #393939",
"g.	c #3C3C3C",
"h.	c #515151",
"i.	c #505050",
"j.	c #4F4F4F",
"k.	c #484848",
"l.	c #444444",
"m.	c #464646",
"n.	c #FDFDFD",
"o.	c #F6F6F5",
"p.	c #DCDCDC",
"q.	c #A1A1A1",
"r.	c #CCCCCC",
"s.	c #C3C3C5",
"t.	c #BABCCA",
"u.	c #C4C4C5",
"v.	c #C5C5C5",
"w.	c #C5C5C4",
"x.	c #C4C4C3",
"y.	c #C6C6C5",
"z.	c #C6C6C6",
"A.	c #C5C4C6",
"B.	c #A8A4C8",
"C.	c #8068E8",
"D.	c #A9A5C9",
"E.	c #B9BABE",
"F.	c #B0B0C0",
"G.	c #ABABB1",
"H.	c #AFAFBF",
"I.	c #B6B6B9",
"J.	c #BCBBBC",
"K.	c #BABDBA",
"L.	c #B0C2AF",
"M.	c #BBBEBB",
"N.	c #A9A9A9",
"O.	c #585858",
"P.	c #B925FB",
"Q.	c #8169E8",
"R.	c #A8A9C8",
"S.	c #7A7ADC",
"T.	c #8F8FAF",
"U.	c #7676D8",
"V.	c #9A9AAB",
"W.	c #B9B9B8",
"X.	c #BDBDBD",
"Y.	c #B5B5B5",
"Z.	c #BAB8BA",
"`.	c #B0C3B0",
" +	c #70E06C",
".+	c #ADC0AD",
"++	c #AAA9AA",
"@+	c #C5C5C6",
"#+	c #AAA6CA",
"$+	c #826AEA",
"%+	c #BBBBBF",
"&+	c #B3B3C3",
"*+	c #B7B7BC",
"=+	c #B2B2C2",
"-+	c #B8B8BB",
";+	c #BEBEBE",
">+	c #BCBFBC",
",+	c #A5A8A5",
"'+	c #A8A9AA",
")+	c #A0A1B0",
"!+	c #A9A9AB",
"~+	c #AAAAA9",
"{+	c #999999",
"]+	c #E0E0E0",
"^+	c #494949",
"/+	c #313131",
"(+	c #333332",
"_+	c #333333",
":+	c #343434",
"<+	c #232323",
"[+	c #262626",
"}+	c #1B1B1B",
"|+	c #0D0D0D",
"      . . . . . . . . . . . . . . . . . . . . . . . + @ #       ",
"    . $ % % % % % % % % % % % % % % % % % % % % % % % & * =     ",
"    . % - ; > > > > > > > > > > > > > > > > > > > > , ' ) !     ",
"    . % ; ~ { ~ { { { { { { { ~ ~ ~ ~ ~ ~ ~ ~ ~ ~ ] ^ / ( =     ",
"    . % > { _ : < < < < < < < , [ } } } } } } } | 1 2 3 4 =     ",
"    . % > ~ : 5 6 5 7 5 7 5 6 8 < 9 0 0 0 0 0 0 > a b 3 4 =     ",
"    . % > { c d e f g h g f e i j } 0 0 0 0 0 0 0 a b 3 4 =     ",
"    . % > { c k l m n m n o p q r a s s s s s s 0 a b 3 4 =     ",
"    . % > { t u v w x y z A B C D 0 E F F F F F F } b 3 4 =     ",
"    . % > { G H I J w x K L M N O P ) ) ) ) ) Q R 9 2 3 4 =     ",
"    . % > { S T U I v V W X Y Z Z & Z & Z & Z `  .[ ..3 4 =     ",
"    . % > ~ , 7 +.@.#.@.$.%.&.*.=.*.=.*.=.*.-.;.>.= ,.'.4 =     ",
"    . % > ~ [ < ).!.!.r D ~.{.].^./.^./.^.(._.:.>.{ <.'.4 =     ",
"    . % > ~ } 9 } a a a s [.}.^.|.^.|.^.. _.1.. >.~ <.'.4 =     ",
"    . % > ~ } 0 0 0 0 s F 2.{.].^./.^.]._.3.3.. >.~ <.'.4 =     ",
"    . % > ~ } 0 0 0 0 s F [.4.5.}.{.}.{.|.. . ;. .~ <.'.4 =     ",
"    . % > ~ | > 0 0 0 0 F R >.6.>.6.>.6.>.>.>. .7.] <.'.4 =     ",
"    . % > ] 1 a a a a a } | = { ~ ~ ~ ~ ~ ~ ~ ~ ] 8.<.'.9.=     ",
"    . 0., ^ 2 b b b b b b ..,.<.<.<.<.<.<.<.<.<.<.<.a.b.4 =     ",
"    :.c.' / '.3 3 3 3 3 3 3 '.'.'.'.'.'.'.'.'.'.'.'.b.=.d.=     ",
"    -.d.P ( 9.9.9.9.9.9.9.9.9.9.9.9.9.9.9.9.9.9.4 9.4 d.e.=     ",
"      f.! = = ! g.g.,.,.,.g.g.,.,.,.,.,.,.,.<.! = = = = =       ",
"                | | h.i.h.| | h.i.i.i.i.i.i.j.                  ",
"                k.j l.b l.j j l.b b b b b b m.                  ",
"n.:.. o.. . . -.@ p.p.p.p.p.p.p.p.p.p.p.p.p.@ -.. . . . . ;.q.  ",
":.r.s.t.u.v.w.x.y.z.z.z.z.z.z.z.z.z.z.z.z.z.z.v.v.v.v.A.z.9.l.a ",
". s.B.C.D.E.F.G.H.I.% c.c.c.c.c.c.c.% Z Z % Z Z Z J.K.L.M.N.<.O.",
"o.t.C.P.Q.R.S.T.U.V.W.X.X.X.X.X.X.X.%.q.q.Y.q.R q.Z.`. +.+++,.O.",
". @+#+$+#+%+&+*+=+-+X.;+;+;+;+;+;+;+X.%.%.c.%.& %.X.>+.+,+6.,.O.",
"|.Y.'+)+!+~.~+~.~+~.~.~.~.~.~.~.~.~.~.~.~.~.~.~.~.~.~.++6.{+f.O.",
"]+^+/+(+_+:+<.,.,.,.,.,.,.,.,.,.,.,.,.,.,.,.,.,.<.:+_+_+_+{ ] a ",
"  <+8.8.8.[+1 a O.O.O.O.O.O.O.O.O.O.O.O.O.O.O.a 1 [+8.8.}+|+!   "};
