/* XPM */
static char * desktop_xpm[] = {
"37 37 68 1",
" 	c None",
".	c #3C3C61",
"+	c #38385B",
"@	c #525282",
"#	c #19192D",
"$	c #2B2B47",
"%	c #2F2F4D",
"&	c #141425",
"*	c #4F4F7E",
"=	c #A47D8C",
"-	c #3D3D63",
";	c #333353",
">	c #45456F",
",	c #22223B",
"'	c #1D1D33",
")	c #4D4D7B",
"!	c #816A8A",
"~	c #0F0F1E",
"{	c #0D0D1A",
"]	c #4E4E7C",
"^	c #202038",
"/	c #3C3C62",
"(	c #2D2D4A",
"_	c #3D3D62",
":	c #44446D",
"<	c #353558",
"[	c #3F3F66",
"}	c #121222",
"|	c #272742",
"1	c #323252",
"2	c #1E1E34",
"3	c #30304F",
"4	c #212139",
"5	c #535384",
"6	c #7474A0",
"7	c #FFFFFF",
"8	c #303050",
"9	c #322938",
"0	c #39395E",
"a	c #404068",
"b	c #5C5C92",
"c	c #5A5A8F",
"d	c #3B3B5F",
"e	c #101020",
"f	c #414169",
"g	c #5D4447",
"h	c #16162C",
"i	c #2A2A47",
"j	c #131323",
"k	c #202037",
"l	c #2C2C4A",
"m	c #515181",
"n	c #5C5C91",
"o	c #545485",
"p	c #0D0D1E",
"q	c #18182C",
"r	c #272741",
"s	c #05050D",
"t	c #050510",
"u	c #060610",
"v	c #0B0B18",
"w	c #010104",
"x	c #3E3E65",
"y	c #373759",
"z	c #17172D",
"A	c #474772",
"B	c #2F2F4E",
"C	c #363658",
"                                     ",
"                                     ",
"                                     ",
"                                     ",
"                                     ",
"                                     ",
"                                     ",
"       .+@                  @+.      ",
"      #$%&*                *&%$#=    ",
"     -;  >,                ,>  ;-    ",
"     ')  !~                ~!  )'    ",
"     {=                        ={    ",
"    ]^                          ^]   ",
"    /(                          (/   ",
"    (_                          _    ",
"    ^]   :<<:            :<<:   ]    ",
"   ={  [}|11|}[        [}|11|}[  {   ",
"   )2 3456776548      8456776543 9   ",
"   _0a4bcdef77b4a    a4bcdef77b4agh  ",
"   i/j5cklmn7775jo--oj5cklmn7775j/p  ",
"   qr|6dl7777776|srrs|6dl7777776|rt  ",
"   uv17em77777771,  ,17em77777771vw  ",
"   x217fn77777771y  y17fn777777712z  ",
"    A|6777777776|>  >|6777777776|A   ",
"     j5777777775}    }5777777775j    ",
"     a4b777777b4[    [4b777777b4a    ",
"      345677654B      B456776543     ",
"       [}|11|}x        x}|11|}[      ",
"         :<C:            :C<:        ",
"                                     ",
"                                     ",
"                                     ",
"                                     ",
"                                     ",
"                                     ",
"                                     ",
"                                     "};
