/* XPM */
static char * start_xpm[] = {
"59 37 203 2",
"  	c #29294A",
". 	c #44446B",
"+ 	c #63639C",
"@ 	c #000000",
"# 	c #353535",
"$ 	c #4C4C4C",
"% 	c #4A4A4A",
"& 	c #010101",
"* 	c #1A1A21",
"= 	c #33333E",
"- 	c #282829",
"; 	c #333333",
"> 	c #505056",
", 	c #53535A",
"' 	c #47474C",
") 	c #505055",
"! 	c #424247",
"~ 	c #38383D",
"{ 	c #2D2D31",
"] 	c #BDBDBD",
"^ 	c #FFFFFF",
"/ 	c #FCFCFC",
"( 	c #090909",
"_ 	c #020204",
": 	c #8E8EA8",
"< 	c #9393AE",
"[ 	c #8E8E8E",
"} 	c #CBCBCB",
"| 	c #AEAECD",
"1 	c #A2A2B8",
"2 	c #7D7D8F",
"3 	c #B6B6D6",
"4 	c #B0B0CF",
"5 	c #5F5F65",
"6 	c #808097",
"7 	c #8A8A9E",
"8 	c #BCBCBC",
"9 	c #FBFBFB",
"0 	c #75758B",
"a 	c #A6A6C5",
"b 	c #2A2A34",
"c 	c #8D8D8D",
"d 	c #F7F7F7",
"e 	c #323232",
"f 	c #ADADCD",
"g 	c #050505",
"h 	c #9696AA",
"i 	c #A9A9C4",
"j 	c #212124",
"k 	c #808096",
"l 	c #AAAAC6",
"m 	c #050504",
"n 	c #24242D",
"o 	c #ADADCC",
"p 	c #B2B2D3",
"q 	c #4B4B5A",
"r 	c #D8D8D8",
"s 	c #CDCDCD",
"t 	c #646464",
"u 	c #303030",
"v 	c #ACACC6",
"w 	c #868699",
"x 	c #9B9BB4",
"y 	c #9494AE",
"z 	c #9393AD",
"A 	c #3C3C42",
"B 	c #7D7D95",
"C 	c #8787A1",
"D 	c #7E7E7E",
"E 	c #666673",
"F 	c #B3B3D0",
"G 	c #333336",
"H 	c #4E4E51",
"I 	c #0F0F14",
"J 	c #AEAECE",
"K 	c #080807",
"L 	c #9F9FB9",
"M 	c #7F7F90",
"N 	c #656578",
"O 	c #8D8DA8",
"P 	c #6D6D7B",
"Q 	c #A6A6BE",
"R 	c #030303",
"S 	c #8F8FA9",
"T 	c #606072",
"U 	c #232323",
"V 	c #B0B0CE",
"W 	c #B5B5D4",
"X 	c #3C3C3D",
"Y 	c #A3A3C1",
"Z 	c #B0B0D0",
"` 	c #14141A",
" .	c #9D9DB4",
"..	c #666674",
"+.	c #7D7D7D",
"@.	c #89899A",
"#.	c #818193",
"$.	c #535356",
"%.	c #181816",
"&.	c #181817",
"*.	c #060605",
"=.	c #434350",
"-.	c #F4F4F4",
";.	c #999999",
">.	c #818199",
",.	c #727287",
"'.	c #707080",
").	c #87879D",
"!.	c #AFAFCE",
"~.	c #575765",
"{.	c #474754",
"].	c #8C8CA5",
"^.	c #A0A0A0",
"/.	c #8787A0",
"(.	c #77778E",
"_.	c #656577",
":.	c #9090A4",
"<.	c #5B5B69",
"[.	c #EBEBEB",
"}.	c #E5E5E5",
"|.	c #8F8F8F",
"1.	c #78788F",
"2.	c #A2A2C0",
"3.	c #6A6A7E",
"4.	c #020202",
"5.	c #69697A",
"6.	c #8C8CA0",
"7.	c #AFAFCA",
"8.	c #ACACC8",
"9.	c #555562",
"0.	c #202027",
"a.	c #9999B5",
"b.	c #818190",
"c.	c #828298",
"d.	c #505053",
"e.	c #0D0D0D",
"f.	c #010100",
"g.	c #07070A",
"h.	c #9090A6",
"i.	c #7A7A86",
"j.	c #9797B3",
"k.	c #B5B5D5",
"l.	c #393945",
"m.	c #A8A8C2",
"n.	c #5E5E63",
"o.	c #797990",
"p.	c #494950",
"q.	c #B4B4D4",
"r.	c #AFAFCC",
"s.	c #101012",
"t.	c #444451",
"u.	c #9F9FBC",
"v.	c #87879A",
"w.	c #9B9BAF",
"x.	c #040406",
"y.	c #A1A1BF",
"z.	c #B4B4D5",
"A.	c #565667",
"B.	c #28282A",
"C.	c #B2B2CC",
"D.	c #656571",
"E.	c #6D6D82",
"F.	c #9A9AB6",
"G.	c #020203",
"H.	c #8A8A99",
"I.	c #A5A5C1",
"J.	c #131314",
"K.	c #4D4D51",
"L.	c #A6A6C4",
"M.	c #6F6F85",
"N.	c #4E4E4E",
"O.	c #47474F",
"P.	c #B2B2D0",
"Q.	c #6E6E7E",
"R.	c #B2B2C8",
"S.	c #AFAFC4",
"T.	c #AEAEC3",
"U.	c #5D5D6F",
"V.	c #383844",
"W.	c #EEEEEE",
"X.	c #0C0C0C",
"Y.	c #19191A",
"Z.	c #A1A1B9",
"`.	c #A3A3BA",
" +	c #080808",
".+	c #ABABC4",
"++	c #85859E",
"@+	c #B5B5D7",
"#+	c #A1A1BE",
"$+	c #8F8F90",
"%+	c #C3C3C3",
"&+	c #9595A6",
"*+	c #B1B1CD",
"=+	c #414149",
"-+	c #868698",
";+	c #08080B",
">+	c #282828",
",+	c #30303B",
"'+	c #2C2C34",
")+	c #34343D",
"!+	c #2B2B30",
"~+	c #212129",
"{+	c #191920",
"  . . . . . . . . . . . . . . . . . . . . . . . . . . . . . . . . . . . . . . . . . . . . . . . . . . . . . . . . . . ",
"  . . . . . . . . . . . . . . . . . . . . . . . . . . . . . . . . . . . . . . . . . . . . . . . . . . . . . . . .   . ",
"  . . + + @ @ @ @ @ @ @ @ @ @ @ @ @ @ @ @ @ @ @ @ @ @ @ @ @ @ @ @ @ @ @ @ @ @ @ @ @ @ @ @ @ @ @ @ @ @ @ @ @ + +     . ",
"  . . + + @ @ @ @ @ @ @ @ @ @ @ @ @ @ @ @ @ @ @ @ @ @ @ @ @ @ @ @ @ @ @ @ @ @ @ @ @ @ @ @ @ @ @ @ @ @ @ @ @ + +     . ",
"  . . + + @ @ @ @ @ @ @ @ @ @ @ @ @ @ @ @ @ @ @ @ @ @ @ @ @ @ @ @ @ @ @ @ @ @ @ @ @ @ @ @ @ @ @ @ @ @ @ @ @ + +     . ",
"  . . + + @ @ @ @ @ @ @ @ @ @ @ @ @ @ @ @ @ @ @ @ @ @ @ @ @ @ @ @ @ @ @ @ @ @ @ @ @ @ @ @ @ @ @ @ @ @ @ @ @ + +     . ",
"  . . + + @ @ @ @ # $ % & @ @ @ * = = = - $ $ $ $ ; @ @ @ @ @ @ @ > , ' ) , , ! @ @ @ @ ~ , , , , { @ @ @ @ + +     . ",
"  . . + + @ @ @ @ ] ^ / ( @ @ _ : . . < [ ^ ^ ^ ^ } @ @ @ @ @ @ @ | . 1 2 3 . 4 5 @ @ @ 6 . . . . 7 @ @ @ @ + +     . ",
"  . . + + @ @ @ @ 8 ^ 9 ( @ @ 0 . . a b c ^ ^ ^ ^ d e @ @ @ @ @ @ f . 1 g h . . i j @ @ k . . . . l m @ @ @ + +     . ",
"  . . + + @ @ @ @ 8 ^ 9 ( @ n o . p q @ c ^ ^ r s s t @ @ @ @ @ @ f . 1 @ u v . . w @ @ k . . x y z A @ @ @ + +     . ",
"  . . + + @ @ @ @ 8 ^ 9 ( @ B . . C @ @ c ^ ^ D @ @ @ @ @ @ @ @ @ f . 1 @ @ E . . F G @ k . . H @ @ @ @ @ @ + +     . ",
"  . . + + @ @ @ @ 8 ^ 9 ( I f . J b @ @ c ^ ^ D @ @ @ @ @ @ @ @ @ f . 1 @ @ K L . . M @ k . . H @ @ @ @ @ @ + +     . ",
"  . . + + @ @ @ @ 8 ^ 9 ( N . . O @ @ @ c ^ ^ D @ @ @ @ @ @ @ @ @ f . 1 @ @ @ P . . Q R k . . H @ @ @ @ @ @ + +     . ",
"  . . + + @ @ @ @ 8 ^ 9 ( S . . T @ @ @ c ^ ^ D @ @ @ @ @ @ @ @ @ f . 1 @ @ @ U V . W X k . . H @ @ @ @ @ @ + +     . ",
"  . . + + @ @ @ @ 8 ^ 9 m Y . Z ` @ @ @ c ^ ^ D @ @ @ @ @ @ @ @ @ f . 1 @ @ @ @  .. . ..k . . H @ @ @ @ @ @ + +     . ",
"  . . + + @ @ @ @ 8 ^ 9 @ J . Y @ @ @ @ c ^ ^ +.@ @ @ @ @ @ @ @ @ f . 1 @ @ @ @ @.. . #.k . . $.%.&.*.@ @ @ + +     . ",
"  . . + + @ @ @ @ 8 ^ 9 =.. . : @ @ @ @ c ^ ^ d -.-.;.>.f f ,.@ @ f . 1 @ @ @ @ '.. . ).k . . Z !.!.~.@ @ @ + +     . ",
"  . . + + @ @ @ @ 8 ^ 9 {.. . ].@ @ @ @ c ^ ^ ^ ^ ^ ^./.. . (.@ @ f . 1 @ @ @ @ _.. . :.k . . . . . <.@ @ @ + +     . ",
"  . . + + @ @ @ @ 8 ^ 9 {.. . ].@ @ @ @ c ^ ^ [.}.}.|.1.2.2.3.4.@ f . 1 @ @ @ @ 5.. . 6.k . . 7.8.8.9.@ @ @ + +     . ",
"  . . + + @ @ @ @ 8 ^ 9 0.Z . a.@ @ @ @ c ^ ^ D @ @ @ @ @ @ @ @ @ f . 1 @ @ @ @ b.. . c.k . . d.e.e.R @ @ @ + +     . ",
"  . . + + @ @ @ @ 8 ^ 9 f.| . a g.@ @ @ c ^ ^ D @ @ @ @ @ @ @ @ @ f . 1 @ @ @ @ h.. . i.k . . H @ @ @ @ @ @ + +     . ",
"  . . + + @ @ @ @ 8 ^ 9 ( j.. k.l.@ @ @ c ^ ^ D @ @ @ @ @ @ @ @ @ f . 1 @ @ @ @ m.. . n.k . . H @ @ @ @ @ @ + +     . ",
"  . . + + @ @ @ @ 8 ^ 9 ( o.. . 0 @ @ @ c ^ ^ D @ @ @ @ @ @ @ @ @ f . 1 @ @ @ p.q.. r.s.k . . H @ @ @ @ @ @ + +     . ",
"  . . + + @ @ @ @ 8 ^ 9 ( t.. . u.@ @ @ c ^ ^ D @ @ @ @ @ @ @ @ @ f . 1 @ @ @ v.. . w.@ k . . H @ @ @ @ @ @ + +     . ",
"  . . + + @ @ @ @ 8 ^ 9 ( x.y.. z.A.@ @ c ^ ^ D @ @ @ @ @ @ @ @ @ f . 1 @ @ B.C.. . D.@ k . . H @ @ @ @ @ @ + +     . ",
"  . . + + @ @ @ @ 8 ^ 9 ( @ E.. . F.G.@ c ^ ^ D @ @ @ @ @ @ @ @ @ f . 1 @ @ H.. . I.J.@ k . . K.@ @ @ @ @ @ + +     . ",
"  . . + + @ @ @ @ 8 ^ 9 ( @ ` L.. . M.@ c ^ ^ r s s N.@ @ @ @ @ @ f . 1 @ O.P.. . Q.@ @ k . . R.S.T.% @ @ @ + +     . ",
"  . . + + @ @ @ @ 8 ^ 9 ( @ @ U.z.. f V.c ^ ^ ^ ^ W.X.@ @ @ @ @ @ f . 1 Y.Z.. . `. +@ @ k . . . . .+& @ @ @ + +     . ",
"  . . + + @ @ @ @ ] ^ / ( @ @ @ ++@+. #+$+^ ^ ^ ^ %+@ @ @ @ @ @ @ J . 1 &+. . *+=+@ @ @ 6 . . . . -+@ @ @ @ + +     . ",
"  . . + + @ @ @ @ # $ % & @ @ @ ;+= = = >+$ $ $ $ ; @ @ @ @ @ @ @ ,+= '+)+= = !+@ @ @ @ ~+= = = = {+@ @ @ @ + +     . ",
"  . . + + @ @ @ @ @ @ @ @ @ @ @ @ @ @ @ @ @ @ @ @ @ @ @ @ @ @ @ @ @ @ @ @ @ @ @ @ @ @ @ @ @ @ @ @ @ @ @ @ @ + +     . ",
"  . . + + @ @ @ @ @ @ @ @ @ @ @ @ @ @ @ @ @ @ @ @ @ @ @ @ @ @ @ @ @ @ @ @ @ @ @ @ @ @ @ @ @ @ @ @ @ @ @ @ @ + +     . ",
"  . . + + @ @ @ @ @ @ @ @ @ @ @ @ @ @ @ @ @ @ @ @ @ @ @ @ @ @ @ @ @ @ @ @ @ @ @ @ @ @ @ @ @ @ @ @ @ @ @ @ @ + +     . ",
"  . . + + @ @ @ @ @ @ @ @ @ @ @ @ @ @ @ @ @ @ @ @ @ @ @ @ @ @ @ @ @ @ @ @ @ @ @ @ @ @ @ @ @ @ @ @ @ @ @ @ @ + +     . ",
"  . .                                                                                                               . ",
"  .                                                                                                                 . ",
"  . . . . . . . . . . . . . . . . . . . . . . . . . . . . . . . . . . . . . . . . . . . . . . . . . . . . . . . . . . "};
