/* XPM */
static char * start2_xpm[] = {
"96 32 489 2",
"  	c #729FCF",
". 	c #415E81",
"+ 	c #131313",
"@ 	c #121212",
"# 	c #212121",
"$ 	c #5D5D5D",
"% 	c #5F5F5F",
"& 	c #585858",
"* 	c #191919",
"= 	c #2C2C2C",
"- 	c #5E5E5E",
"; 	c #4F4F4F",
"> 	c #525252",
", 	c #2B2B2B",
"' 	c #2F2F2F",
") 	c #282828",
"! 	c #171717",
"~ 	c #ADADAD",
"{ 	c #F9F9F9",
"] 	c #FAFAFA",
"^ 	c #F8F8F8",
"/ 	c #A5A5A5",
"( 	c #717171",
"_ 	c #F7F7F7",
": 	c #CDCDCD",
"< 	c #8D8D8D",
"[ 	c #F5F5F5",
"} 	c #C3C3C3",
"| 	c #787878",
"1 	c #7F7F7F",
"2 	c #FFFFFF",
"3 	c #C7C7C7",
"4 	c #242424",
"5 	c #737373",
"6 	c #FCFCFC",
"7 	c #D2D2D2",
"8 	c #181818",
"9 	c #B0B0B0",
"0 	c #FEFEFE",
"a 	c #A0A0A0",
"b 	c #7B7B7B",
"c 	c #CACACA",
"d 	c #141414",
"e 	c #343434",
"f 	c #E2E2E2",
"g 	c #E6E6E6",
"h 	c #454545",
"i 	c #D5D5D5",
"j 	c #F1F1F1",
"k 	c #FDFDFD",
"l 	c #F6F6F6",
"m 	c #E7E7E7",
"n 	c #3B3B3B",
"o 	c #9E9E9E",
"p 	c #878787",
"q 	c #666666",
"r 	c #BBBBBB",
"s 	c #DBDBDB",
"t 	c #4D4D4D",
"u 	c #4C4C4C",
"v 	c #E4E4E4",
"w 	c #D4D4D4",
"x 	c #1C1C1C",
"y 	c #BABABA",
"z 	c #F2F2F2",
"A 	c #505050",
"B 	c #D8D8D8",
"C 	c #101010",
"D 	c #698EB4",
"E 	c #517397",
"F 	c #527397",
"G 	c #527498",
"H 	c #527497",
"I 	c #52749A",
"J 	c #6C98CB",
"K 	c #838383",
"L 	c #7C7C7C",
"M 	c #575757",
"N 	c #A2A2A2",
"O 	c #5F809E",
"P 	c #3C5671",
"Q 	c #344556",
"R 	c #000000",
"S 	c #1D344E",
"T 	c #3B5570",
"U 	c #3F5C7F",
"V 	c #6B9ACE",
"W 	c #E1E1E1",
"X 	c #1F1F1F",
"Y 	c #62819B",
"Z 	c #000005",
"` 	c #5B8ABE",
" .	c #E8E8E8",
"..	c #ABABAB",
"+.	c #8F8F8F",
"@.	c #F4F4F4",
"#.	c #4B4B4B",
"$.	c #516576",
"%.	c #092851",
"&.	c #6C9ACC",
"*.	c #595959",
"=.	c #6C6C6C",
"-.	c #484848",
";.	c #729ECC",
">.	c #3A3F36",
",.	c #2F5280",
"'.	c #719FCF",
").	c #F3F3F3",
"!.	c #2A2A2A",
"~.	c #1D1D1D",
"{.	c #E5E5E5",
"].	c #A1A1A1",
"^.	c #0D0D0D",
"/.	c #111111",
"(.	c #7095B8",
"_.	c #14110D",
":.	c #4A74A4",
"<.	c #989898",
"[.	c #DFDFDF",
"}.	c #1A1A1A",
"|.	c #B8B8B8",
"1.	c #EDEDED",
"2.	c #B9B9B9",
"3.	c #515151",
"4.	c #6D96C1",
"5.	c #5E84AD",
"6.	c #6792C2",
"7.	c #709BC8",
"8.	c #648BB4",
"9.	c #5D83AC",
"0.	c #6690BF",
"a.	c #63829C",
"b.	c #020100",
"c.	c #000016",
"d.	c #5D8CBF",
"e.	c #658CB5",
"f.	c #6088B2",
"g.	c #6791C0",
"h.	c #6E98C4",
"i.	c #6389B1",
"j.	c #5E84AE",
"k.	c #6893C2",
"l.	c #A6A6A6",
"m.	c #D6D6D6",
"n.	c #161616",
"o.	c #C1C1C1",
"p.	c #C0C0C0",
"q.	c #FBFBFB",
"r.	c #6E6E6E",
"s.	c #6D93B9",
"t.	c #2B3544",
"u.	c #344A5C",
"v.	c #0B182B",
"w.	c #5581B2",
"x.	c #6384A4",
"y.	c #2B3742",
"z.	c #2F4966",
"A.	c #3A4E60",
"B.	c #071120",
"C.	c #446C99",
"D.	c #516776",
"E.	c #0F2C4E",
"F.	c #719DCA",
"G.	c #597794",
"H.	c #27323C",
"I.	c #27405D",
"J.	c #3F5871",
"K.	c #1D252F",
"L.	c #416796",
"M.	c #6E98C2",
"N.	c #4E677E",
"O.	c #1C2631",
"P.	c #2F4A67",
"Q.	c #3E556C",
"R.	c #151F2F",
"S.	c #4E77A7",
"T.	c #AAAAAA",
"U.	c #151515",
"V.	c #BEBEBE",
"W.	c #C2C2C2",
"X.	c #729FCE",
"Y.	c #4B5D66",
"Z.	c #416896",
"`.	c #6C90B6",
" +	c #130C00",
".+	c #0F263D",
"++	c #1C2A41",
"@+	c #5A85B5",
"#+	c #719ECE",
"$+	c #719DC8",
"%+	c #36362B",
"&+	c #011031",
"*+	c #6493C5",
"=+	c #729FCC",
"-+	c #393D3B",
";+	c #2D5282",
">+	c #709BC7",
",+	c #465765",
"'+	c #051124",
")+	c #709DCE",
"!+	c #709AC4",
"~+	c #3E4C58",
"{+	c #031029",
"]+	c #6493CB",
"^+	c #6C93B9",
"/+	c #333E46",
"(+	c #152A49",
"_+	c #5D88B8",
":+	c #56717F",
"<+	c #0E294E",
"[+	c #6A99CD",
"}+	c #D9D9D9",
"|+	c #C5C5C5",
"1+	c #EFEFEF",
"2+	c #545454",
"3+	c #7098BE",
"4+	c #201A23",
"5+	c #5F8EC1",
"6+	c #6689A6",
"7+	c #060100",
"8+	c #020A1E",
"9+	c #5682B4",
"0+	c #729ECD",
"a+	c #404033",
"b+	c #000007",
"c+	c #5B8FBF",
"d+	c #6F94B9",
"e+	c #19180E",
"f+	c #4A74A5",
"g+	c #4C606C",
"h+	c #456D9E",
"i+	c #627D9A",
"j+	c #081D3C",
"k+	c #6798CD",
"l+	c #7099C2",
"m+	c #323C3F",
"n+	c #01071A",
"o+	c #5683B5",
"p+	c #597585",
"q+	c #0F2C51",
"r+	c #6B9ACF",
"s+	c #919191",
"t+	c #B2B2B2",
"u+	c #6889AB",
"v+	c #2B486B",
"w+	c #6D9CCF",
"x+	c #587185",
"y+	c #325683",
"z+	c #719CC5",
"A+	c #26211B",
"B+	c #000E33",
"C+	c #6593C6",
"D+	c #63829B",
"E+	c #020000",
"F+	c #00041C",
"G+	c #5D8CBE",
"H+	c #6584A1",
"I+	c #080100",
"J+	c #0D2B51",
"K+	c #6A99CC",
"L+	c #6E96BE",
"M+	c #4B6888",
"N+	c #5B85B5",
"O+	c #556D7D",
"P+	c #234671",
"Q+	c #709ECF",
"R+	c #729FD0",
"S+	c #719CCA",
"T+	c #6285A6",
"U+	c #252C2F",
"V+	c #446D9D",
"W+	c #777777",
"X+	c #3D3D3D",
"Y+	c #EBEBEB",
"Z+	c #949494",
"`+	c #729ECE",
" @	c #709DCC",
".@	c #434E52",
"+@	c #000106",
"@@	c #537FB2",
"#@	c #698BAA",
"$@	c #070502",
"%@	c #1C3A62",
"&@	c #6E9ECF",
"*@	c #516773",
"=@	c #0F2749",
"-@	c #6B9BCE",
";@	c #424E52",
">@	c #3A608F",
",@	c #729BC4",
"'@	c #2D312C",
")@	c #1F364E",
"!@	c #3B536C",
"~@	c #33475C",
"{@	c #253442",
"]@	c #253B56",
"^@	c #5077A4",
"/@	c #828282",
"(@	c #5B5B5B",
"_@	c #6D6D6D",
":@	c #7199C1",
"<@	c #26281C",
"[@	c #030F27",
"}@	c #6494CA",
"|@	c #566E80",
"1@	c #3F6797",
"2@	c #729FCA",
"3@	c #383F42",
"4@	c #2B5382",
"5@	c #6F97BB",
"6@	c #190E03",
"7@	c #547FB2",
"8@	c #6A91B1",
"9@	c #0E0000",
"0@	c #000411",
"a@	c #4D719E",
"b@	c #5D83AB",
"c@	c #6088B3",
"d@	c #6B97C6",
"e@	c #1E1E1E",
"f@	c #A3A3A3",
"g@	c #EEEEEE",
"h@	c #3C3C3C",
"i@	c #698BA8",
"j@	c #050000",
"k@	c #173A69",
"l@	c #709ECE",
"m@	c #729ECA",
"n@	c #383D3B",
"o@	c #000317",
"p@	c #5A88BB",
"q@	c #6E94BA",
"r@	c #1B1501",
"s@	c #000001",
"t@	c #4972A5",
"u@	c #6A88A9",
"v@	c #010000",
"w@	c #000125",
"x@	c #6494C6",
"y@	c #6889A1",
"z@	c #061635",
"A@	c #689ACD",
"B@	c #B6B6B6",
"C@	c #597387",
"D@	c #3D6392",
"E@	c #6A8DAD",
"F@	c #0F0B03",
"G@	c #163159",
"H@	c #688AA8",
"I@	c #213B64",
"J@	c #6F9CCD",
"K@	c #63819C",
"L@	c #000414",
"M@	c #5D8ABE",
"N@	c #6A89AA",
"O@	c #052556",
"P@	c #6C99CD",
"Q@	c #6F9BCA",
"R@	c #698FA9",
"S@	c #0E2859",
"T@	c #6F9BCB",
"U@	c #6A6A6A",
"V@	c #445159",
"W@	c #5380B1",
"X@	c #567081",
"Y@	c #3F6898",
"Z@	c #506472",
"`@	c #385F8D",
" #	c #516671",
".#	c #091F45",
"+#	c #6B9CCD",
"@#	c #7098BC",
"##	c #1C1306",
"$#	c #021F4D",
"%#	c #6B98CC",
"&#	c #6384A3",
"*#	c #263B5B",
"=#	c #6B9CCE",
"-#	c #7098C0",
";#	c #25251C",
">#	c #0B224D",
",#	c #6E9DCE",
"'#	c #5D7A95",
")#	c #2C4A71",
"!#	c #6F9ECF",
"~#	c #252525",
"{#	c #DEDEDE",
"]#	c #DDDDDD",
"^#	c #434343",
"/#	c #719AC4",
"(#	c #2A2917",
"_#	c #000827",
":#	c #6495C9",
"<#	c #526C78",
"[#	c #5584B4",
"}#	c #6B8FB2",
"|#	c #212A3B",
"1#	c #618FC2",
"2#	c #668FBA",
"3#	c #648AB0",
"4#	c #2D3538",
"5#	c #173B67",
"6#	c #658DB9",
"7#	c #6690BD",
"8#	c #729FCD",
"9#	c #4D616D",
"0#	c #000009",
"a#	c #5380B2",
"b#	c #6E98C3",
"c#	c #55708A",
"d#	c #192335",
"e#	c #537CAD",
"f#	c #526877",
"g#	c #010513",
"h#	c #5581B5",
"i#	c #6D95BF",
"j#	c #4E667C",
"k#	c #182841",
"l#	c #5B85B7",
"m#	c #909090",
"n#	c #6F6F6F",
"o#	c #6C94B2",
"p#	c #0C0000",
"q#	c #244775",
"r#	c #698CAE",
"s#	c #1E2121",
"t#	c #273E55",
"u#	c #223143",
"v#	c #537EB0",
"w#	c #526A7C",
"x#	c #091018",
"y#	c #0A1018",
"z#	c #0B131B",
"A#	c #0B121A",
"B#	c #091016",
"C#	c #070D14",
"D#	c #122C50",
"E#	c #6F9AC4",
"F#	c #46596A",
"G#	c #101B2C",
"H#	c #354F6B",
"I#	c #35495D",
"J#	c #1E2936",
"K#	c #355477",
"L#	c #618DBD",
"M#	c #719BC6",
"N#	c #465A69",
"O#	c #101E30",
"P#	c #37516C",
"Q#	c #324558",
"R#	c #1B2838",
"S#	c #3C5D83",
"T#	c #6692C3",
"U#	c #333333",
"V#	c #424242",
"W#	c #D7D7D7",
"X#	c #EAEAEA",
"Y#	c #444444",
"Z#	c #6288AF",
"`#	c #6A97C8",
" $	c #6C95BF",
".$	c #6086AE",
"+$	c #6894C3",
"@$	c #719DCC",
"#$	c #709CCC",
"$$	c #6990B9",
"%$	c #5F85AD",
"&$	c #6086B0",
"*$	c #6A96C6",
"=$	c #6990B8",
"-$	c #6087B2",
";$	c #6C99C9",
">$	c #858585",
",$	c #BFBFBF",
"'$	c #A7A7A7",
")$	c #D0D0D0",
"!$	c #1B1B1B",
"~$	c #999999",
"{$	c #D1D1D1",
"]$	c #808080",
"^$	c #7A7A7A",
"/$	c #979797",
"($	c #2E2E2E",
"_$	c #7E7E7E",
":$	c #818181",
"<$	c #747474",
"[$	c #6B6B6B",
"}$	c #3E3E3E",
"|$	c #373737",
"                                                                                                                    . + + + + + + + + + + + + + + + + + + + + + + + + + + + + + + + + + + + + @ ",
"                                                                                                                    . + + + + + + + + + + + + + + + + + + + + + + + + + + + + + + + + + + + + @ ",
"                                                                                                                    . + + + + + + + # $ % % & * = - % ; > % % % , + + + + ' % % % % - ) + + + @ ",
"                                                                                                                    . + + + + + + ! ~ { ] ^ / ! ( _ ] : < [ ] { } * + + + | { ] ] ] ^ < + + + @ ",
"                                                                                                                    . + + + + + + 1 ] 2 2 3 4 + 5 6 2 7 8 9 0 2 0 a + + + b 0 2 2 2 2 c d + + @ ",
"                                                                                                                    . + + + + + e f 2 2 g h + + 5 6 2 7 + = i 2 2 j > + + b 0 2 k l l m n + + @ ",
"                                                                                                                    . + + + + + o 0 2 6 p + + + 5 6 2 7 + + q [ 2 2 r + + b 0 2 s t t u # + + @ ",
"                                                                                                                    . + + + + ' v 2 2 w x + + + 5 6 2 7 + + d y 2 2 z A + b 0 2 B C + + + + + @ ",
"                                              D E F G G G H I J                                                     . + + + + K k 2 k L + + + + 5 6 2 7 + + + M l 2 2 N + b 0 2 B C + + + + + @ ",
"                                              O P Q R R S T U V                                                     . + + + @ } 2 2 W 8 + + + + 5 6 2 7 + + + ! : 2 2 B X b 0 2 B C + + + + + @ ",
"                                                  Y R Z `                                                           . + + + )  .2 2 ..+ + + + + 5 6 2 7 + + + + +.2 2 @.#.b 0 2 B C + + + + + @ ",
"                                                  $.R %.&.                                                          . + + + *.^ 2 6 =.+ + + + + 5 6 2 7 + + + + -.{ 2 0 b b 0 2 B C + + + + + @ ",
"                                                ;.>.R ,.'.                                                          . + + + K 2 2 ).!.+ + + + + 5 6 2 7 + + + + ~.{.2 2 ].b 0 2 B ^././.+ + + @ ",
"                                                (._.R :.                                                            . + + + <.2 2 [.}.+ + + + + 5 6 2 7 + + + + C 7 2 2 |.b 0 2 1.r r 2.3.+ + @ ",
"              4.5.6.    7.8.9.0.                a.b.c.d.              7.e.f.g.                h.i.j.k.              . + + @ l.2 2 m.n.+ + + + + 5 6 2 7 + + + + @ o.2 2 p.b 0 2 2 2 2 q.r.+ + @ ",
"            s.t.u.v.w.x.y.z.A.B.C.'.            D.R E.V           F.G.H.I.J.K.L.'.        M.N.O.P.Q.R.S.            . + + @ T.2 2 i U.+ + + + + 5 6 2 7 + + + + @ V.2 2 W.b 0 2 2 2 2 q.r.+ + @ ",
"          X.Y.Z.`. +.+++@+#+$+%+&+*+          =+-+R ;+          >+,+'+S.)+!+~+{+]+      ^+/+(+_+#+X.:+<+[+          . + + + N 2 2 }+! + + + + + 5 6 2 7 + + + + /.|+2 2 V.b 0 2 1+} } o.2++ + @ ",
"          3+4+5+6+7+8+9+    0+a+b+c+          d+e+R f+        ;.g+R h+    i+R j+k+    l+m+n+o+      p+q+r+          . + + + s+2 2 g ~.+ + + + + 5 6 2 7 + + + + /.s 2 2 t+b 0 2 B C d d + + + @ ",
"          u+v+w+x+R y+'.    z+A+B+C+          D+E+F+G+        H+I+J+K+    L+M+N+      O+R P+Q+R+S+T+U+V+            . + + + W+k 2 ^ X++ + + + + 5 6 2 7 + + + + , Y+2 2 Z+b 0 2 B C + + + + + @ ",
"          `+ @X..@+@@@      #@$@%@&@          *@R =@-@      ;.;@R >@                ,@'@R )@!@~@{@]@^@)+            . + + + -.l 2 0 /@+ + + + + 5 6 2 7 + + + + (@k 2 k _@b 0 2 B C + + + + + @ ",
"              :@<@[@}@      |@R 1@          2@3@R 4@        5@6@R 7@                8@9@0@a@b@c@d@ @                . + + + e@[.2 2 r @ + + + + 5 6 2 7 + + + + f@2 2 g@h@b 0 2 B C + + + + + @ ",
"              i@j@k@l@    m@n@o@p@X. @      q@r@s@t@        u@v@w@x@                y@R z@A@                        . + + + @ B@2 2 Y+!.+ + + + 5 6 2 7 + + + x }+2 2 : * b 0 2 B C + + + + + @ ",
"              C@R D@      E@F@G@w+H@I@J@    K@R L@M@        N@v@O@P@          Q@    R@j@S@l@        X.T@            . + + + + 5 q.2 0 +.+ + + + 5 6 2 7 + + + U@] 2 0 Z++ b 0 2 B C + + + + + @ ",
"            X.V@s@W@      X@R Y@  Z@`@'.     #R .#+#        @###$#%#        &#*#=#  -#;#>#,#      X.'#)#!#          . + + + + ~#{#2 2 ]#~#+ + + 5 6 2 7 + + U.|+2 2 g@^#+ b 0 2 B C + + + + + @ ",
"            /#(#_#:#      <#b+[#}#|#1#h.2#3#4#R 5#6#7#Q+    8#9#0#a#    b#c#d#e#      f#g#h#    i#j#k#l#            . + + + + + <.0 2 k m#+ + + 5 6 2 7 + + n#^ 2 2 B@@ + b 0 2 B ! * * U.+ + @ ",
"            o#p#q#)+      r#s#t#u#v#  w#x#y#z#A#B#C#D#[+      E#F#G#H#I#J#K#L#        M#N#O#P#Q#R#S#T#              . + + + + + U#f 2 2  .V#+ + 5 6 2 7 + !.W#2 2 z > + + b 0 2 6 l l X#Y#+ + @ ",
"            ;.Z#`#           $.$+$    @$#$#$#$#$#$#$ @          `+$$%$&$*$#+            0+=$%$-$;$                  . + + + + + + >$q.2 2 ,$e@+ 5 6 2 7 n.'$0 2 0 l.@ + + b 0 2 2 2 2 )$! + + @ ",
"                                                                                                                    . + + + + + + !$y k 0 ] ~$n.5 q.0 {$]$l 0 0 )$4 + + + ^$k 0 0 0 k /$+ + + @ ",
"                                                                                                                    . + + + + + + + ($_$:$:$<$!$n ]$:$[$[$:$:$:$h@+ + + + }$:$:$:$:$]$|$+ + + @ ",
"                                                                                                                    . + + + + + + + + + + + + + + + + + + + + + + + + + + + + + + + + + + + + @ ",
"                                                                                                                    . + + + + + + + + + + + + + + + + + + + + + + + + + + + + + + + + + + + + @ ",
"                                                                                                                    . + + + + + + + + + + + + + + + + + + + + + + + + + + + + + + + + + + + + @ "};
