/* XPM */
static char * start_xpm[] = {
"96 32 220 2",
"  	c #63639C",
". 	c #7A7BA7",
"+ 	c #7778A5",
"@ 	c #7878A6",
"# 	c #67679E",
"$ 	c #6B6B9F",
"% 	c #B7B9CB",
"& 	c #AEB1C3",
"* 	c #AFB2C3",
"= 	c #AFB0C6",
"- 	c #A2A5BB",
"; 	c #A5A7BE",
"> 	c #68689E",
", 	c #B8B9CB",
"' 	c #B0B0C6",
") 	c #65659D",
"! 	c #A3A5BB",
"~ 	c #A2A4BC",
"{ 	c #64649C",
"] 	c #A4A7BC",
"^ 	c #A1A4BC",
"/ 	c #BFC0CF",
"( 	c #8C8EB0",
"_ 	c #8C8EB1",
": 	c #9395B3",
"< 	c #A4A7BD",
"[ 	c #9F9FBC",
"} 	c #9294B3",
"| 	c #9395B4",
"1 	c #696A9F",
"2 	c #B1B2C7",
"3 	c #A3A5BC",
"4 	c #AEB1C2",
"5 	c #B7B9C9",
"6 	c #9698B5",
"7 	c #B0B3C4",
"8 	c #A9ABC0",
"9 	c #B7BAC9",
"0 	c #B0B2C5",
"a 	c #B1B4C5",
"b 	c #BABCCB",
"c 	c #B1B3C5",
"d 	c #ADAEC2",
"e 	c #6E6EA1",
"f 	c #B5B8C7",
"g 	c #B5B6C7",
"h 	c #9799B5",
"i 	c #AFB3C4",
"j 	c #A8A9C1",
"k 	c #9293B2",
"l 	c #B9BBCC",
"m 	c #8787AE",
"n 	c #797AA6",
"o 	c #7D7FA8",
"p 	c #69699F",
"q 	c #C2C4D1",
"r 	c #6B6BA0",
"s 	c #8586AC",
"t 	c #6A6B9F",
"u 	c #8788AE",
"v 	c #BFC1D0",
"w 	c #B4B6C6",
"x 	c #AEB0C3",
"y 	c #8B8DAF",
"z 	c #9394B4",
"A 	c #B5B8C8",
"B 	c #AAADC1",
"C 	c #BBBECE",
"D 	c #6D6DA0",
"E 	c #B1B4C6",
"F 	c #B2B5C6",
"G 	c #7979A6",
"H 	c #7E7FA9",
"I 	c #9495B5",
"J 	c #A1A3BC",
"K 	c #B7B8C9",
"L 	c #B6B8C8",
"M 	c #B8BACA",
"N 	c #8384AC",
"O 	c #B2B5C5",
"P 	c #8182AA",
"Q 	c #8283AB",
"R 	c #898AAE",
"S 	c #A9AAC2",
"T 	c #7A7CA7",
"U 	c #8385AA",
"V 	c #7777A4",
"W 	c #69699D",
"X 	c #8183AA",
"Y 	c #9FA2BA",
"Z 	c #9C9EB7",
"` 	c #7C7CA8",
" .	c #B4B7C8",
"..	c #6F71A2",
"+.	c #9295B2",
"@.	c #898AAD",
"#.	c #9797B4",
"$.	c #9B9EB8",
"%.	c #9EA0B8",
"&.	c #A0A3BA",
"*.	c #69699E",
"=.	c #8C8CB0",
"-.	c #9EA1B9",
";.	c #7678A5",
">.	c #8082A9",
",.	c #8081AA",
"'.	c #A4A6BC",
").	c #64649D",
"!.	c #8A8BAE",
"~.	c #7F80A8",
"{.	c #9A9CB7",
"].	c #A0A2BB",
"^.	c #9699B6",
"/.	c #7678A4",
"(.	c #7171A2",
"_.	c #8F90B0",
":.	c #9FA1B9",
"<.	c #9497B3",
"[.	c #6F6FA1",
"}.	c #65659E",
"|.	c #8E90B0",
"1.	c #9091B1",
"2.	c #7A7AA5",
"3.	c #6D6DA1",
"4.	c #9B9DB7",
"5.	c #8486AB",
"6.	c #9396B3",
"7.	c #979AB5",
"8.	c #7373A3",
"9.	c #66689D",
"0.	c #7878A5",
"a.	c #8586AB",
"b.	c #8283AA",
"c.	c #7979A5",
"d.	c #A0A3BB",
"e.	c #8C8DAF",
"f.	c #9598B4",
"g.	c #7070A1",
"h.	c #7E80A9",
"i.	c #8D90B0",
"j.	c #6A6A9F",
"k.	c #9597B4",
"l.	c #9699B5",
"m.	c #6A6C9F",
"n.	c #989AB6",
"o.	c #A2A4BB",
"p.	c #7D7DA7",
"q.	c #7E7FA8",
"r.	c #AAADC0",
"s.	c #8587AC",
"t.	c #B2B5C7",
"u.	c #B2B5C8",
"v.	c #AEB1C5",
"w.	c #7171A1",
"x.	c #8789AD",
"y.	c #989BB5",
"z.	c #7575A3",
"A.	c #8688AC",
"B.	c #888AAD",
"C.	c #878AAC",
"D.	c #9596B4",
"E.	c #9798B5",
"F.	c #8E91B0",
"G.	c #9092B1",
"H.	c #A5A7BF",
"I.	c #B1B3C6",
"J.	c #A5A8BF",
"K.	c #9E9FBB",
"L.	c #63639D",
"M.	c #9C9EB8",
"N.	c #6C6CA0",
"O.	c #8081A9",
"P.	c #7375A3",
"Q.	c #A3A6BC",
"R.	c #7576A4",
"S.	c #7677A4",
"T.	c #BCBECD",
"U.	c #9899B7",
"V.	c #888AAC",
"W.	c #9EA0B9",
"X.	c #8F92B1",
"Y.	c #8284AA",
"Z.	c #9294B2",
"`.	c #7F81A9",
" +	c #8D8EB0",
".+	c #B1B2C6",
"++	c #B9BCCB",
"@+	c #8484AC",
"#+	c #A5A8BD",
"$+	c #7779A5",
"%+	c #7C7EA7",
"&+	c #A1A3BB",
"*+	c #9598B5",
"=+	c #7676A4",
"-+	c #A7AABD",
";+	c #B6B9C9",
">+	c #BBBECC",
",+	c #8B8BAF",
"'+	c #9093B1",
")+	c #9FA3BA",
"!+	c #8F90B1",
"~+	c #9A9BB6",
"{+	c #A2A4BA",
"]+	c #9D9FB8",
"^+	c #6C6C9F",
"/+	c #7575A4",
"(+	c #ABAEC1",
"_+	c #9DA0B8",
":+	c #A1A4BB",
"<+	c #9396B4",
"[+	c #7E7EA8",
"}+	c #B7B8CA",
"|+	c #B0B3C3",
"1+	c #B1B4C4",
"2+	c #A2A4BD",
"3+	c #9596B5",
"4+	c #66669D",
"5+	c #7C7DA7",
"6+	c #7C7CA6",
"7+	c #6D6EA1",
"                                                                                                                                                                                                ",
"                                                                                                                                                                                                ",
"        . + + + @         # + + + + + + + + $                                                                                                                                                   ",
"        % & * * =       # - * * * * * * * * ; >                                                                                                                                                 ",
"        , & * * '     ) ! * * * * * * * * * * ~ )                                                                                                                                               ",
"        , & * * '   { ] * * * * * * * * * * * * ^ )                                                                                                                                             ",
"        , & * * '   ] * * * / ( _ _ _ _ : * * * * < # [ } : : | 1                                                                                                                               ",
"        , & * * 2 3 * * 4 5 >           { 6 7 * * * 8 9 0 a b c d e                                                                                                                             ",
"        , & * * f * * & g {                 h * * * i j   k l > * m                                                                                                                             ",
"        , & * * * * * b )                   n * * * i o   k l p * m                                                                                                                             ",
"        , & * * * * q r                     n * * * i s   k l t * u                                                                                                                             ",
"        , & * * * v e                       n * * * w x y z A B C D                                                                                                                             ",
"        , & * * E $                         n * * * F G H H I I p                                                                                                                               ",
"        , & * * J                           n * * * F                                                                                                                                           ",
"        , & * * J                           n * * * F                                                                                                                                           ",
"        , & * * J                           n * * * F                                                                                                                                           ",
"        , & * * J                           n * * * F K K K K L M N                                                                                                                             ",
"        , & * * J                           n * * * O P Q Q R b S $                 { T U V   W                               X Y Y Z                                                           ",
"        , & * * J                           n * * * F         `  .Q               ..- +.@.#.$.%.                                    &.                                                          ",
"        , & * * J                           n * * * F         *.F =.              -.;.      >.&.                                    &.                                                          ",
"        , & * * J                           n * * * F         { ,.)               '.        ).!.          ~.{.].^./.                &.              (._.$.:.<.[.        }.|.1.T   2.^.<.3.      ",
"        , & * * J                           n * * * F                             4.5.                  6.7.8.9.0.:.a.              &.              a.b.r ) c.d.*.        c.e._.+.f.g.h.i.      ",
"        , & * * J                           n * * * F   ) ) ) ) ) ) ) {           j.k.Y l.U m.        ~.n.        ).o.e             &.                        |.p.          q.r.s.              ",
"        , & * * J                           n * * * a t.u.u.u.u.u.u.u.v.                w.a.:.x.      y.z.          A.B.            &.              W C.D.E.F.n.q.          q.G.                ",
"        , & * * J                           n * * * F H.H.b I.J.J.J.J.K.                    L.! 9.    M.N.          O.i.            &.            P.Q.B.R.[.S.n.q.          q.i.                ",
"        , & * * J                           n * * * F     T.U.                  O.V.          W.[.    X.Y.          Z.`.            &.            n./.         +q.          q.i.                ",
"        , & * * J                           n * * * F (..+L ++@+                U #+m.      $+!       N.Q.w.      %+&+L.            &.            *+=+      c.-+q.          q.i.                ",
"        , & * * J                           n * * * ;+>+l r ,+w ,               `.'+)+l.!+~+)+(.        z.{+n.1.M.]+^+      /+:.Y Y (+Y Y _+W     w.:++.F.M.<+F.'.e.    [+Y '.-+Y Y %.*.        ",
"        }+|+1+7 2+                          n a 1+1+7 3+      R.T.4+                  /+5+w.                /+%+..                                  ).$+6+j.                                    ",
"        p 7+7+7+j.                          ) 7+7+7+N.                                                                                                                                          ",
"                                                                                                                                                                                                ",
"                                                                                                                                                                                                "};
