/* XPM */
static char * Concave1_xpm[] = {
"8 1024 2 1",
" 	c #4992a7",
".	c #244953",
"        ",
"        ",
"        ",
"        ",
"        ",
"        ",
"        ",
"        ",
"        ",
"        ",
"        ",
"        ",
"        ",
"        ",
"        ",
"        ",
"        ",
"        ",
"        ",
"        ",
"        ",
"        ",
"        ",
"        ",
"        ",
"        ",
"        ",
"        ",
"        ",
"        ",
"        ",
"        ",
"        ",
"        ",
"        ",
"        ",
"        ",
"        ",
"        ",
"        ",
"        ",
"        ",
"        ",
"        ",
"        ",
"        ",
"        ",
"        ",
"        ",
"        ",
"        ",
"        ",
"        ",
"        ",
"        ",
"        ",
"        ",
"        ",
"        ",
"        ",
"        ",
"        ",
"        ",
"        ",
"        ",
"        ",
"        ",
"        ",
"        ",
"        ",
"        ",
"        ",
"        ",
"        ",
"        ",
"        ",
"        ",
"        ",
"        ",
"        ",
"        ",
"        ",
"        ",
"        ",
"        ",
"        ",
"        ",
"        ",
"        ",
"        ",
"        ",
"        ",
"        ",
"        ",
"        ",
"        ",
"        ",
"        ",
"        ",
"        ",
"        ",
"        ",
"        ",
"        ",
"        ",
"        ",
"        ",
"        ",
"        ",
"        ",
"        ",
"        ",
"        ",
"        ",
"        ",
"        ",
"        ",
"        ",
"   .    ",
"        ",
"        ",
"        ",
"        ",
"  .     ",
"        ",
"   .    ",
"        ",
"        ",
"        ",
"    .   ",
"  .     ",
"        ",
"        ",
"     .  ",
"   .    ",
"        ",
"        ",
"        ",
"  .  .  ",
"        ",
"        ",
"   .    ",
"        ",
"    .   ",
"    .   ",
".       ",
"     .  ",
"        ",
".       ",
" .  .   ",
"        ",
"        ",
".  ..   ",
"        ",
"     .  ",
"        ",
".   .   ",
" .      ",
"  .  .  ",
"        ",
".   .   ",
"        ",
"  .   . ",
"   .    ",
".   .   ",
"        ",
"  .  .. ",
"        ",
".   . . ",
"        ",
"  .   . ",
"        ",
". . .   ",
"        ",
"  . . . ",
"        ",
". . . . ",
"        ",
"  . . . ",
"        ",
". . . . ",
"        ",
". .   . ",
"        ",
". . . . ",
"        ",
". . . . ",
"        ",
". . . . ",
" .      ",
". . . . ",
"        ",
". . . . ",
" .   .  ",
". . . . ",
"        ",
". . . . ",
" .   .  ",
". . . . ",
"   .    ",
". . . . ",
" .   .  ",
". . . . ",
"   .   .",
". . . . ",
"     .  ",
". . . . ",
"   .   .",
". . . . ",
"     . .",
". . .   ",
"   .   .",
". . . . ",
" . . .  ",
".   . . ",
"   .   .",
". . . . ",
" . . . .",
".   . . ",
"   .   .",
". . . . ",
" . . . .",
". . . . ",
" .     .",
". . . . ",
" . . . .",
".   .   ",
" . . . .",
". . . . ",
"   . . .",
". .   . ",
" . . . .",
". . . . ",
" . . . .",
".   . . ",
" . . . .",
"..  . . ",
" . . . .",
". . . . ",
" . .   .",
". . ... ",
" .   . .",
". . . . ",
" . . . .",
". . . . ",
" . . . .",
". . . . ",
" . . . .",
". . . . ",
" . . . .",
". . . . ",
" . . . .",
". .. .. ",
" . . . .",
". . . . ",
" . . . .",
". .. ...",
" . .   .",
". ... ..",
"   . . .",
"... . ..",
" . . . .",
". ..  . ",
" . . . .",
". .... .",
" .   . .",
"...... .",
"   . . .",
"... ... ",
" . . . .",
". . .. .",
" . . . .",
".. .. ..",
".. ... .",
". . . ..",
" . . . .",
".. .. ..",
"..  .. .",
"..... . ",
"   . . .",
"... ....",
" . ..  .",
".. .... ",
" ..  ...",
". ... ..",
".. . . .",
". .... .",
" ..  ...",
". ... . ",
"..  ....",
"..... ..",
" . . . .",
". ......",
"... .  .",
". ..... ",
" . .  ..",
"....... ",
" . . ...",
"..... ..",
"  . .. .",
"..... ..",
" . .....",
"... . . ",
". .. ...",
"... .. .",
" ... ...",
".. ... .",
" ... ...",
".. ... .",
" ... ...",
".. .. . ",
".. .....",
".... . .",
" . .....",
"... . . ",
" .......",
".. . . .",
"........",
". . . . ",
"........",
".. ... .",
"........",
". . . . ",
"........",
".. ... .",
"... ....",
". ... . ",
"... ....",
"...... .",
" . .....",
"... . ..",
" .......",
".. ... .",
"........",
". .. . .",
"........",
".. ... .",
"... ....",
". ... ..",
"........",
".. ... .",
"........",
". .. ...",
"..... ..",
".. .....",
"........",
". .. ...",
"........",
"..... . ",
". ......",
".... ...",
"........",
"........",
".. .. ..",
"........",
" .......",
"........",
"..... ..",
"........",
".. . ...",
"........",
"........",
"........",
"..... ..",
"........",
". ......",
"........",
"..... ..",
"........",
"........",
"........",
" .......",
"........",
"..... ..",
"........",
"........",
"........",
"........",
"........",
"........",
"........",
"........",
"........",
"........",
"........",
"........",
"........",
"........",
"........",
"........",
"........",
"........",
"........",
"........",
"........",
"........",
"........",
"........",
"........",
"........",
"........",
"........",
"........",
"........",
"........",
"........",
"........",
"........",
"........",
"........",
"........",
"........",
"........",
"........",
"........",
"........",
"........",
"........",
"........",
"........",
"........",
"........",
"........",
"........",
"........",
"........",
"........",
"........",
"........",
"........",
"........",
"........",
"........",
"........",
"........",
"........",
"........",
"........",
"........",
"........",
"........",
"........",
"........",
"........",
"........",
"........",
"........",
"........",
"........",
"........",
"........",
"........",
"........",
"........",
"........",
"........",
"........",
"........",
"........",
"........",
"........",
"........",
"........",
"........",
"........",
"........",
"........",
"........",
"........",
"........",
"........",
"........",
"........",
"........",
"........",
"........",
"........",
"........",
"........",
"........",
"........",
"........",
"........",
"........",
"........",
"........",
"........",
"........",
"........",
"........",
"........",
"........",
"........",
"........",
"........",
"........",
"........",
"........",
"........",
"........",
"........",
"........",
"........",
"........",
"........",
"........",
"........",
"........",
"........",
"........",
"........",
"........",
"........",
"........",
"........",
"........",
"........",
"........",
"........",
"........",
"........",
"........",
"........",
"........",
"........",
"........",
"........",
"........",
"........",
"........",
"........",
"........",
"........",
"........",
"........",
"........",
"........",
"........",
"........",
"........",
"........",
"........",
"........",
"........",
"........",
"........",
"........",
"........",
"........",
"........",
"........",
"........",
"........",
"........",
"........",
"........",
"........",
"........",
"........",
"........",
"........",
"........",
"........",
"........",
"........",
"........",
"........",
"........",
"........",
"........",
"........",
"........",
"........",
"........",
"........",
"........",
"........",
"........",
"........",
"........",
"........",
"........",
"........",
"........",
"........",
"........",
"........",
"........",
"........",
"........",
"........",
"........",
"........",
"........",
"........",
"........",
"........",
"........",
"........",
"........",
"........",
"........",
"........",
"........",
"........",
"........",
"........",
"........",
"........",
"........",
"........",
"........",
"........",
"........",
"........",
"........",
"........",
"........",
"........",
"........",
"........",
"........",
"........",
"........",
"........",
"........",
"........",
"........",
"........",
"........",
"........",
"........",
"........",
"........",
"........",
"........",
"........",
"........",
"........",
"........",
"........",
"........",
"........",
"........",
"........",
"........",
"........",
"........",
"........",
"........",
"........",
"........",
"........",
"........",
"....... ",
"........",
".... ...",
"........",
"........",
"........",
"........",
"........",
".. ... .",
"........",
"........",
"........",
".... ...",
"........",
"........",
".... ...",
".. ... .",
"........",
"........",
" .......",
".... ...",
"........",
"....... ",
" ... ...",
"........",
"...... .",
".. .....",
".... ...",
"....... ",
".. .....",
".... ...",
" .......",
"... ....",
"...... .",
". .. ...",
"........",
"... . ..",
". .... .",
"........",
"... .. .",
"..... ..",
".. .....",
"...... .",
". . ....",
".... ...",
". .... .",
"........",
" . . . .",
"........",
".. ... .",
".... ...",
" . ... .",
".... ...",
". .... .",
"........",
" . . . .",
"........",
".. . . .",
"........",
" . . . .",
"........",
" . . . .",
"........",
" . . . .",
"........",
" . . . .",
"........",
" . . . .",
"........",
" . . . .",
".... ...",
" . . . .",
"........",
" . . . .",
" .......",
".. . . .",
"........",
" . . . .",
" ... ...",
". . .. .",
".... . .",
". ......",
" ..   . ",
". ......",
".. . . .",
".. .....",
" ...  . ",
". . ....",
".. ..  .",
" .. ....",
" ...  . ",
" . .....",
".. . . .",
".. ... .",
" . . . .",
" .. . ..",
".. ... .",
". .. . .",
" . . . .",
".. .. ..",
".. ... .",
" . . . .",
" . . . .",
"..... ..",
"   . . .",
"... .. .",
" . . . .",
".. .. ..",
" . . . .",
" .. .. .",
" . . . .",
"... . ..",
"   . .  ",
".... ...",
" . . . .",
". . .  .",
" . . . .",
". .. ...",
" . . .  ",
". . . ..",
" . . . .",
".. .. . ",
" . . . .",
". . .  .",
" . . . .",
". . ... ",
" . .   .",
".  .. . ",
" . . . .",
"... . . ",
"   . . .",
". . . ..",
" .   .  ",
" .. ... ",
" . .   .",
". . . . ",
" . . . .",
". .  .. ",
" . . . .",
". . . . ",
" .   . .",
". . . . ",
" . . . .",
". . . . ",
" .   . .",
". . . . ",
" . .   .",
"  . . . ",
" . . . .",
". . . . ",
" .     .",
". . . . ",
" . . . .",
". .   . ",
"   . . .",
". . . . ",
" . .   .",
"  . . . ",
"   .   .",
". . . . ",
" . . .  ",
".   . . ",
"   .   .",
". . . . ",
" .   . .",
". .   . ",
"   .   .",
". . . . ",
" .   .  ",
". . . . ",
"   .   .",
". . . . ",
" .   .  ",
"  . . . ",
"   .    ",
".   . . ",
" .   .  ",
". . . . ",
"        ",
". . . . ",
" .   .  ",
". . . . ",
"        ",
". . . . ",
" .      ",
". . . . ",
"        ",
". . . . ",
"        ",
". . . . ",
"        ",
". .   . ",
"        ",
". . . . ",
"        ",
"  . . . ",
"        ",
". . . . ",
"        ",
"  .   . ",
"        ",
". . .   ",
"        ",
"  . . . ",
"        ",
".   . . ",
"        ",
"  .   . ",
"        ",
". . .   ",
"        ",
"  ..  . ",
"        ",
".   .   ",
"        ",
"  . .   ",
"        ",
".   .   ",
"      . ",
"  .     ",
"        ",
".   .   ",
"        ",
" .  .   ",
"        ",
".       ",
"   .    ",
"     .  ",
"        ",
".   .   ",
"        ",
"  .     ",
"     .  ",
"        ",
"  .     ",
"        ",
"    .   ",
"        ",
"  .     ",
"        ",
"    .   ",
"        ",
"        ",
"        ",
"  .  .  ",
"        ",
"        ",
"        ",
"     .  ",
"        ",
"        ",
" .      ",
"        ",
"        ",
"   .    ",
"        ",
"        ",
"        ",
"        ",
"        ",
"        ",
"   .    ",
"        ",
"        ",
"        ",
"        ",
"        ",
"        ",
"        ",
"        ",
"        ",
"        ",
"        ",
"        ",
"        ",
"        ",
"        ",
"        ",
"        ",
"        ",
"        ",
"        ",
"        ",
"        ",
"        ",
"        ",
"        ",
"        ",
"        ",
"        ",
"        ",
"        ",
"        ",
"        ",
"        ",
"        ",
"        ",
"        ",
"        ",
"        ",
"        ",
"        ",
"        ",
"        ",
"        ",
"        ",
"        ",
"        ",
"        ",
"        ",
"        ",
"        ",
"        ",
"        ",
"        ",
"        ",
"        ",
"        ",
"        ",
"        ",
"        ",
"        ",
"        ",
"        ",
"        ",
"        ",
"        ",
"        ",
"        ",
"        ",
"        ",
"        ",
"        ",
"        ",
"        ",
"        ",
"        ",
"        ",
"        ",
"        ",
"        ",
"        ",
"        ",
"        ",
"        ",
"        ",
"        ",
"        ",
"        ",
"        ",
"        ",
"        ",
"        ",
"        ",
"        ",
"        ",
"        ",
"        ",
"        ",
"        ",
"        ",
"        ",
"        ",
"        ",
"        ",
"        ",
"        ",
"        ",
"        ",
"        "};
