/* XPM */
static char * Convex_xpm[] = {
"8 1024 2 1",
" 	c #cad1d9",
".	c #464d56",
"........",
"........",
"........",
"........",
"........",
"........",
"........",
"........",
"........",
"........",
"........",
"........",
"........",
"........",
"........",
"........",
"........",
"........",
"........",
"........",
"........",
"........",
"........",
"........",
"........",
"........",
"........",
"........",
"........",
"........",
"........",
"........",
"........",
"........",
"........",
"........",
"........",
"........",
"........",
"........",
"........",
"........",
"........",
"........",
"........",
"........",
"........",
"........",
"........",
"........",
"........",
"........",
"........",
"........",
"........",
"........",
"........",
"........",
"........",
"........",
"........",
"........",
"........",
"........",
"........",
"........",
"........",
"........",
"........",
"........",
"........",
"........",
"........",
"........",
"........",
"........",
"........",
"........",
"........",
"........",
"........",
"........",
"........",
"........",
"........",
"........",
"........",
"........",
"........",
"........",
"........",
"........",
"........",
"........",
"........",
"........",
"........",
"........",
"........",
"........",
"........",
"........",
"........",
"........",
"........",
"........",
"........",
" .......",
"... ....",
"........",
"........",
".. .....",
"........",
"...... .",
"........",
" .......",
"... ....",
"...... .",
". ......",
"........",
"... ....",
"..... ..",
". ......",
"..... ..",
"... ... ",
".... ...",
". .... .",
"........",
". .. ...",
"........",
". ... ..",
"........",
". . . ..",
"...... .",
". ......",
"..... ..",
". . .. .",
"........",
". . . ..",
"...... .",
". . ....",
"..... ..",
". . ... ",
".... ...",
". .... .",
".. . ...",
"...... .",
". . ....",
".... . .",
". . ... ",
".... ...",
" . ... .",
".... ...",
". . . . ",
"........",
". . .  .",
"........",
" .  . . ",
"........",
".  . . .",
"........",
" .  . . ",
"........",
". . .  .",
". ......",
"...   . ",
". .... .",
". . . ..",
"...... .",
"    ... ",
".... ...",
". ...  .",
". . ....",
". .   . ",
"........",
". . .  .",
". ......",
". .   . ",
"...... .",
".   . ..",
"...... .",
".   . . ",
".... ...",
"  . . . ",
"... .. .",
". . . . ",
". ......",
". .   . ",
" . . ...",
". . . . ",
"... . ..",
". . . . ",
" ... ...",
"  .   . ",
".. ... .",
". . . . ",
" ..  ...",
". .   . ",
".. ... .",
". . . . ",
" . . ...",
". . . . ",
".. . . .",
"  . . . ",
" ..  . .",
". . . . ",
".. ..  .",
"  . . . ",
" . . ...",
". .   . ",
".  ... .",
". . . . ",
" . . . .",
". .   . ",
".  ... .",
". . . . ",
" . .   .",
". . . . ",
".  . . .",
". . . . ",
" . . . .",
". . . . ",
" .   . .",
". . . . ",
" . . . .",
". . . . ",
" .   . .",
". . . . ",
" . . . .",
". .   . ",
" . . . .",
".   . . ",
" . . . .",
"  .   . ",
" . . . .",
". . .   ",
" .   . .",
"  .   . ",
" . . . .",
".   . . ",
" . . . .",
"  .   . ",
" . . . .",
".   .   ",
" . . . .",
"  .     ",
" . . . .",
".   .   ",
" . . . .",
"      . ",
" . . . .",
".   .   ",
" . . . .",
"        ",
" . . . .",
".   .   ",
" . . . .",
"        ",
" . . . .",
".       ",
" . . . .",
"        ",
" . . . .",
"    .   ",
" . . . .",
"        ",
" . . . .",
"        ",
" .  .. .",
"        ",
" . . . .",
"        ",
" . . .  ",
"        ",
" . . . .",
"        ",
" . . .  ",
"        ",
" . . . .",
"        ",
" . . .  ",
"        ",
"   .  ..",
".       ",
" .   .  ",
"  .     ",
"   .   .",
"        ",
" . . .  ",
"        ",
"   .  ..",
".       ",
" .      ",
"   .    ",
"   .   .",
"    .   ",
"        ",
".   .   ",
"       .",
" .      ",
"    .   ",
"        ",
"  ..  . ",
"        ",
"        ",
"    .   ",
" .      ",
"    .   ",
"        ",
".    .  ",
"   .    ",
"        ",
"      . ",
"  .     ",
"        ",
"   .    ",
"        ",
".    .  ",
"        ",
" .      ",
"    .   ",
"        ",
"  .     ",
"    .   ",
"        ",
"        ",
"  .  .  ",
"        ",
"        ",
" .      ",
"      . ",
"        ",
"   .    ",
"        ",
"      . ",
".       ",
"        ",
"  .     ",
"        ",
"    .   ",
"        ",
"        ",
"  .     ",
"        ",
"        ",
"  .     ",
"     .  ",
"        ",
"        ",
"        ",
"        ",
" .      ",
"        ",
"        ",
"        ",
"   .    ",
"        ",
"        ",
"        ",
"        ",
"        ",
"  .     ",
"        ",
"        ",
"        ",
"        ",
"        ",
"        ",
"        ",
"        ",
"        ",
" .      ",
"        ",
"        ",
"        ",
"        ",
"        ",
"        ",
"        ",
"        ",
"        ",
"        ",
"        ",
"        ",
"        ",
"        ",
"        ",
"        ",
"        ",
"        ",
"        ",
"        ",
"        ",
"        ",
"        ",
"        ",
"        ",
"        ",
"        ",
"        ",
"        ",
"        ",
"        ",
"        ",
"        ",
"        ",
"        ",
"        ",
"        ",
"        ",
"        ",
"        ",
"        ",
"        ",
"        ",
"        ",
"        ",
"        ",
"        ",
"        ",
"        ",
"        ",
"        ",
"        ",
"        ",
"        ",
"        ",
"        ",
"        ",
"        ",
"        ",
"        ",
"        ",
"        ",
"        ",
"        ",
"        ",
"        ",
"        ",
"        ",
"        ",
"        ",
"        ",
"        ",
"        ",
"        ",
"        ",
"        ",
"        ",
"        ",
"        ",
"        ",
"        ",
"        ",
"        ",
"        ",
"        ",
"        ",
"        ",
"        ",
"        ",
"        ",
"        ",
"        ",
"        ",
"        ",
"        ",
"        ",
"        ",
"        ",
"        ",
"        ",
"        ",
"        ",
"        ",
"        ",
"        ",
"        ",
"        ",
"        ",
"        ",
"        ",
"        ",
"        ",
"        ",
"        ",
"        ",
"        ",
"        ",
"        ",
"        ",
"        ",
"        ",
"        ",
"        ",
"        ",
"        ",
"        ",
"        ",
"        ",
"        ",
"        ",
"        ",
"        ",
"        ",
"        ",
"        ",
"        ",
"        ",
"        ",
"        ",
"        ",
"        ",
"        ",
"        ",
"        ",
"        ",
"        ",
"        ",
"        ",
"        ",
"        ",
"        ",
"        ",
"        ",
"        ",
"        ",
"        ",
"        ",
"        ",
"        ",
"        ",
"        ",
"        ",
"        ",
"        ",
"        ",
"        ",
"        ",
"        ",
"        ",
"        ",
"        ",
"        ",
"        ",
"        ",
"        ",
"        ",
"        ",
"        ",
"        ",
"        ",
"        ",
"        ",
"        ",
"        ",
"        ",
"        ",
"        ",
"        ",
"        ",
"        ",
"        ",
"        ",
"        ",
"        ",
"        ",
"        ",
"        ",
"        ",
"        ",
"        ",
"        ",
"        ",
"        ",
"        ",
"        ",
"        ",
"        ",
"        ",
"        ",
"        ",
"        ",
"        ",
"        ",
"        ",
"        ",
"        ",
"        ",
"        ",
"        ",
"        ",
"        ",
"        ",
"        ",
"        ",
"        ",
"        ",
"        ",
"        ",
"        ",
"        ",
"        ",
"        ",
"        ",
"        ",
"        ",
"        ",
"        ",
"        ",
"        ",
"        ",
"        ",
"        ",
"        ",
"        ",
"        ",
"        ",
"        ",
"        ",
"        ",
"        ",
"        ",
"        ",
"        ",
"        ",
"        ",
"        ",
"        ",
"        ",
"        ",
"        ",
"        ",
"        ",
"        ",
"        ",
"        ",
"        ",
"        ",
"        ",
"        ",
"        ",
"        ",
"        ",
"        ",
"        ",
"        ",
"        ",
"        ",
"        ",
"        ",
"        ",
"        ",
"        ",
"        ",
"        ",
"        ",
"        ",
"        ",
"        ",
"        ",
"        ",
"        ",
"        ",
"        ",
"        ",
"        ",
"   .    ",
"        ",
"        ",
"        ",
"        ",
"        ",
"        ",
"        ",
"   .    ",
"        ",
"    .   ",
"        ",
"        ",
"        ",
" .      ",
"        ",
"   .    ",
"        ",
"        ",
"    .   ",
"        ",
"        ",
".   .   ",
"        ",
"        ",
"   .    ",
"    .   ",
"        ",
"        ",
"        ",
" .  .   ",
"        ",
"        ",
"  .  .  ",
"        ",
"        ",
"   .    ",
"      . ",
".       ",
"        ",
"  .     ",
"     .  ",
"        ",
"  .     ",
"        ",
"   .    ",
"     .  ",
"        ",
"  .     ",
"    .   ",
"        ",
"     .  ",
"  .     ",
"        ",
"   . .  ",
"        ",
"  .     ",
"    .   ",
"       .",
"     .  ",
" .      ",
"        ",
"   ..  .",
"        ",
" .      ",
"   .    ",
"   ..  .",
"        ",
" .   .  ",
"        ",
"   ..  .",
" .      ",
" .   .  ",
"        ",
"   ..  .",
"        ",
" .   .  ",
"    .   ",
" . . . .",
"        ",
" .   .  ",
"        ",
" . . . .",
"        ",
" . . .  ",
"  .     ",
" . . . .",
"        ",
" ..  . .",
"        ",
" . . . .",
"        ",
" . . . .",
"    .   ",
" . . . .",
"        ",
" . . . .",
".       ",
" . . . .",
"        ",
" . . . .",
".   .   ",
" . . . .",
"        ",
" . . . .",
".   .   ",
" . . . .",
"      . ",
" . . . .",
".   .   ",
" . . . .",
"  .     ",
" . . . .",
".   .   ",
" . . . .",
"  .   . ",
" . . . .",
".   . . ",
" . . . .",
"  .   . ",
" . . . .",
". . .   ",
" .   . .",
"  .   . ",
" . . . .",
". . . . ",
" . . . .",
". .   . ",
"   . . .",
". . . . ",
" .   . .",
". . . . ",
" . . . .",
". .   . ",
" . . . .",
". . . . ",
" . . . .",
".   . . ",
".. . . .",
". .   . ",
" . . . .",
". . . . ",
" . . . .",
". . . . ",
" . . . .",
". . . . ",
".  . . .",
". . . . ",
" . .  ..",
". . . . ",
" . ... .",
". .   . ",
"  .. . .",
". . . . ",
".. . . .",
". . . . ",
"  ..  ..",
". . . . ",
"..  ....",
". . .   ",
" ... ...",
".   . . ",
".... . .",
". . . . ",
"  ..  ..",
". . . . ",
"... ....",
". . .   ",
" . . ...",
". . . . ",
".. .. ..",
". . . . ",
".. .. ..",
". . . . ",
" ... ...",
".   . . ",
"..... ..",
". . . . ",
". .. ...",
". . . . ",
".. .. ..",
". ... . ",
". . ....",
". . . . ",
".. .. ..",
". ..  ..",
". .... .",
". . ... ",
"... . ..",
". ... . ",
". . ....",
"... . . ",
" .. . ..",
". ... . ",
" .. ....",
"... . . ",
" . .....",
". .. . .",
".. .....",
"... . . ",
" .. ....",
"....  . ",
". ......",
"..  . . ",
"........",
". . . . ",
"........",
". .  .. ",
"..... ..",
". . ... ",
".... ...",
". .... .",
".. . ...",
"...... .",
". .. ...",
"... .. .",
" .......",
".. . . .",
" .......",
".. . . .",
"........",
". . . ..",
"...... .",
"........",
" . . . .",
"........",
" ... ...",
"........",
". . .. .",
"........",
". .. ...",
"........",
".. .. ..",
"...... .",
". ......",
"... ....",
"........",
".. . .. ",
"........",
"........",
".. .....",
".... .. ",
"........",
"........",
"........",
"...... .",
"........",
"........",
".. .....",
"........",
"........",
"........",
"........",
". ......",
"........",
"........",
"........",
"........",
"........",
"........",
"........",
"........",
"........",
"........",
"........",
"........",
"........",
"........",
"........",
"........",
"........",
"........",
"........",
"........",
"........",
"........",
"........",
"........",
"........",
"........",
"........",
"........",
"........",
"........",
"........",
"........",
"........",
"........",
"........",
"........",
"........",
"........",
"........",
"........",
"........",
"........",
"........",
"........",
"........",
"........",
"........",
"........",
"........",
"........",
"........",
"........",
"........",
"........",
"........",
"........",
"........",
"........",
"........",
"........",
"........",
"........",
"........",
"........",
"........",
"........",
"........",
"........",
"........",
"........",
"........",
"........",
"........",
"........",
"........",
"........",
"........",
"........",
"........",
"........",
"........",
"........",
"........",
"........",
"........",
"........",
"........",
"........",
"........",
"........",
"........",
"........",
"........",
"........",
"........",
"........",
"........",
"........",
"........",
"........",
"........",
"........",
"........"};
