/* XPM */
static char * LatticeBig_xpm[] = {
"36 36 2 1",
" 	c #8080a9",
".	c #8f8fbe",
" . . . . . .    .   .  . . . . . . .",
". . . . . .           . . . . . . . ",
" . . . . .   .    .  . . . . . . . .",
". . . . .   . .     . . . . . . . . ",
" . . . .   . . .   . . . . . . . . .",
". . . .   . . . . . . . . . . . . . ",
" . . .   . . . . . . . . . . . . . .",
". . .   . . . . . . . . . . . . . . ",
" . .   . . . . . . . . . . . . . . .",
". .   . . . . . . . . . . . . . . . ",
" .   . . . . . . . . . . . . . . . .",
".   . . . . . . . . . . . . . . . . ",
"   . . . . . . . . . . . . . . . . .",
"  . . . . . . . . . . . . . . . . . ",
" . . . . . . . . . . . . . . . . .  ",
"  . . . . . . . . . . . . . . . .   ",
".  . . . . . . . . . . . . . . .    ",
"    . . . . . . . . . . . . . .     ",
"  .  . . . . . . . . . . . . .    . ",
"      . . . . . . . . . . . . .     ",
".  .   . . . . . . . . . . . . .    ",
"  . .   . . . . . . . . . . . . .   ",
" . . .   . . . . . . . . . . . . .  ",
". . . .   . . . . . . . . . . . . . ",
" . . . .   . . . . . . . . . . . . .",
". . . . .   . . . . . . . . . . . . ",
" . . . . .   . . . . . . . . . . . .",
". . . . . .   . . . . . . . . . . . ",
" . . . . . .   . . . . . . . . . . .",
". . . . . . .   . . . . . . . . . . ",
" . . . . . . .   . . . . . . . . . .",
". . . . . . . .   . . . . . . . . . ",
" . . . . . . . .   . . . . . . . . .",
". . . . . . . .     . . . . . . . . ",
" . . . . . . .    .  . . . . . . . .",
". . . . . . .         . . . . . . . "};
