/* XPM */
static char * Paver1_xpm[] = {
"108 124 2 1",
" 	c #625347",
".	c #a18b79",
".                                   .                                   .                                   ",
" ..                               .. ..                               .. ..                               ..",
"   ..                           ..     ..                           ..     ..                           ..  ",
"     .                         .         .                         .         .                         .    ",
"      ..                     ..           ..                     ..           ..                     ..     ",
"        ..                 ..               ..                 ..               ..                 ..       ",
"          .               .                   .               .                   .               .         ",
"           ..           ..                     ..           ..                     ..           ..          ",
"             .         .                         .         .                         .         .            ",
"              ..     ..                           ..     ..                           ..     ..             ",
"                .. ..                               .. ..                               .. ..               ",
"                  .                                   .                                   .                 ",
"                                                      .                                   .                 ",
"                                                      .                                   .                 ",
"                                                      .                                   .                 ",
"                                                      .                                   .                 ",
"                                                      .                                   .                 ",
"                                                      .                                   .                 ",
"                                                      .                                   .                 ",
"                                                      .                                   .                 ",
"                                                      .                                   .                 ",
"                                                      .                                   .                 ",
"                                                      .                                   .                 ",
"                                                      .                                   .                 ",
"                                                      .                                   .                 ",
"                                                      .                                   .                 ",
"                                                      .                                   .                 ",
"                                                      .                                   .                 ",
"                                                      .                                   .                 ",
"                                                      .                                   .                 ",
"                                                      .                                   .                 ",
"                                                      .                                   .                 ",
"                                                    ..                                     ..               ",
"                                                  ..                                         ..             ",
"                                                 .                                             .            ",
"                                               ..                                               ..          ",
"                                             ..                                                   ..        ",
"                                            .                                                       .       ",
"                                          ..                                                         ..     ",
"                                         .                                                             .    ",
"                                       ..                                                               ..  ",
"                                     ..                                                                   ..",
".                                   .                                                                       ",
".                                   .                                                                       ",
".                                   .                                                                       ",
".                                   .                                                                       ",
".                                   .                                                                       ",
".                                   .                                                                       ",
".                                   .                                                                       ",
".                                   .                                                                       ",
".                                   .                                                                       ",
".                                   .                                                                       ",
".                                   .                                                                       ",
".                                   .                                                                       ",
".                                   .                                                                       ",
".                                   .                                                                       ",
".                                   .                                                                       ",
".                                   .                                                                       ",
".                                   .                                                                       ",
".                                   .                                                                       ",
".                                   .                                                                       ",
".                                   .                                                                       ",
".                                   .                                   .                                   ",
" ..                               .. ..                               .. ..                               ..",
"   ..                           ..     ..                           ..     ..                           ..  ",
"     .                         .         .                         .         .                         .    ",
"      ..                     ..           ..                     ..           ..                     ..     ",
"        ..                 ..               ..                 ..               ..                 ..       ",
"          .               .                   .               .                   .               .         ",
"           ..           ..                     ..           ..                     ..           ..          ",
"             .         .                         .         .                         .         .            ",
"              ..     ..                           ..     ..                           ..     ..             ",
"                .. ..                               .. ..                               .. ..               ",
"                  .                                   .                                   .                 ",
"                  .                                   .                                                     ",
"                  .                                   .                                                     ",
"                  .                                   .                                                     ",
"                  .                                   .                                                     ",
"                  .                                   .                                                     ",
"                  .                                   .                                                     ",
"                  .                                   .                                                     ",
"                  .                                   .                                                     ",
"                  .                                   .                                                     ",
"                  .                                   .                                                     ",
"                  .                                   .                                                     ",
"                  .                                   .                                                     ",
"                  .                                   .                                                     ",
"                  .                                   .                                                     ",
"                  .                                   .                                                     ",
"                  .                                   .                                                     ",
"                  .                                   .                                                     ",
"                  .                                   .                                                     ",
"                  .                                   .                                                     ",
"                  .                                   .                                                     ",
"                ..                                     ..                                                   ",
"              ..                                         ..                                                 ",
"             .                                             .                                                ",
"           ..                                               ..                                              ",
"         ..                                                   ..                                            ",
"        .                                                       .                                           ",
"      ..                                                         ..                                         ",
"     .                                                             .                                        ",
"   ..                                                               ..                                      ",
" ..                                                                   ..                                    ",
".                                                                       .                                   ",
".                                                                       .                                   ",
".                                                                       .                                   ",
".                                                                       .                                   ",
".                                                                       .                                   ",
".                                                                       .                                   ",
".                                                                       .                                   ",
".                                                                       .                                   ",
".                                                                       .                                   ",
".                                                                       .                                   ",
".                                                                       .                                   ",
".                                                                       .                                   ",
".                                                                       .                                   ",
".                                                                       .                                   ",
".                                                                       .                                   ",
".                                                                       .                                   ",
".                                                                       .                                   ",
".                                                                       .                                   ",
".                                                                       .                                   ",
".                                                                       .                                   "};
