/* XPM */
static char * Pebbles_xpm[] = {
"162 95 2 1",
" 	c #847f83",
".	c #969fae",
"                          .    .      ....                       . .   .          .         . . .                 .                                               ",
"                         .  .       . .. ...                                      .                     . .                 .                            . ..     ",
"         ...    ....           .       ..  .             .   .  . .              .     ..                      .   .     .                               ..  ..  .",
"     .      .     .           .    .    ...   ..        .         . .                   . .      .       ..                           .                 . .. ..   ",
"     . . .  .                   ..           . .   . .     ...            ..           ..    . ..   ..    .   . .                           .    .         ..   ..",
"         .....    ..      .     .      . .        . ..      .       ..    .   .     .. .       .         .  ....                   .            ..               .",
"    ...    . .         .            .... .               .. ...    .                   .         .   .      .  .       .            .      ..   ..        . .     ",
"        . .   .      .   .        .   ..   ..              . ..                     . .                                                                 ... .     ",
"                          .        .  .   ...  .   ..        .                    .     .             .                 .                         .      ..  ..  .",
"                                      .       ... .   .     .             .     .    .                 .     .           .                   .    .         . .. .",
"    ..               .            .        .    .  ..          .           ...  ..            ..       .     .    .      .                   .   .                ",
"      .            ..   .       .. .                          ..           . .. .       .     ..               .  .      . .        ..    . .  .     .        .   ",
"  ..   . ....     .  .  .    . .  ..    ..                .                  ...       ..          . ..       .    .      .               .       ..      . .     ",
"  . .        ..       .         ... .  . .       ..        .   . ...      ....   .   .  .   ...     .       .....            .         .   .     .    .    ..     ",
"   ..  . .  .    . .          .   ..              .  .         ...              ...   .     .. .  . .      ...  .. .        .           .    ..  ..    .  . .     ",
"  . .       .  . . .             . .    .        .              ..           ..  .   .       ...   . .     .. .  .  ..    .          ... . .  .                   ",
"   .   .   .  .  ...              ..  ...      .        .     .                   .  .                     .    .   ..    ...   ..                          .     ",
"      .            .          .       ..   .            .     .                .                          . . .  .       . ..  . . .         ..          ..       ",
".        ..           .      ..   .        . .  .     .. .      ..  ..        .. ..  .                .           .      .       ..    .     .           .    .   ",
"      .                               .  . .                    ..  .       .  . .                     ..       . ..          .    .    .                         ",
" . .      .    ...    . .  ..    .  ....             .       .    .      .   .                   .     . .       .        .   ..   . .       .    ..       .     .",
"  .      . .  ...    .         ..........     .                  ..         .  ..... .            .    . ..      .        ... . . .              .    ..    .     ",
" ....     .    .        .       .  .......  ...         ..           .        . ....            .. .     ..                 ..       . .     .    ..  ...       . ",
"  . . .              .      . . ..  .....      .   .      .  .   .   .        . .....              ..   ...              .   .      . .      .              ... . ",
"          .  .        .  .   .       ...   .. .      . ..  ..   .             ... ...      .        .     .               ...      .  .     .   .          ..  . .",
"        .  ..  .          . ...   .        ..    . .  . .  . .                         ..       ...              .           . .   . .              .  .    ..... ",
". .   .        .       .    ...                  .       .                         . .  .         ...                                  .            .  .     .   .",
"  .   .    .   .      .    . .. .     .         .  .                 .           .. .            . .                  .         .    ..          .   .    .   ....",
"       .        ..         .  . ..  .     ..                          . . ..           .          .               ..            .. .  .          .    .       . . ",
"      .   .          ..     .  ....        .                           . ..     . .   ..        ..       ..    .  ...      .  .    .                           .  ",
"            . ..    ...      .... .    .  ..           . .            . ..        .   ..          .           .. .....        . .  ..                      .      ",
" .        .......   ....       .....   .           .   .   .           . .   .     .    ....    . .     .   ..........              .     .     .      .          ",
"...  .    ... .. .      .     . ...          .         .   .          ... .. .         .   .    . ..    . .... .   . .. .  .                   . .           ...  ",
".... .     .. . ...         .               .               . ..          .. .           ...      ...    .    ..     ..    . .            .                   ..  ",
" .   .       ... .   .        . .            .    . . . .     .             ..           ..        .       . ..          .           .  .                  . .....",
".        . .  . ..    ..                 .   ...  ..    .    .               .  ...                        ... ..         ..         .. .   .           .   . . ..",
".    .       ...   .  .     ...       .... ...... ...            . . ..      . .....    .. ..               .       ..             .    . ..  ... .     ..    . . ",
"      ..                  . ....          ....... .. .        .   ..            ...      . .                         .          .   .  .   .   ..      .  .       ",
"     . . ..   ..  .        . ..      .    .......             .          ..       .      . .                     .. ..    .      ....   .        .     . .        ",
"      . ..      .     .   .    .     .   ..... .   . .                 .           . .    .    .  .              .            .  .....  .            .   .        ",
"          .   .  .     .  .  ...     .    .....     . ..       .                  .  .        . ..   ..      .       . .         . . . ...           .            ",
"        .    . . .  . .    ..       . .    ...      .  .   .    . ..               .         .  ....          ..      .            ....  . . ...    .       .    .",
"      .              .   .             .             .    .   .    .    .        .       .     ....                         . . . .... ... .  ..   .     .  .     ",
"      . .     .     .  ..     .       .  .   ...    .  .   .   . .      ..       .              ..                         .    .. ...       ... .     .          ",
"   ..  . .            . ...    .           . ...                ...      .                  .                          .   .   ... ..         . .     .           ",
"  .     ..   . .          ..    .   .  ..                       .                      .  .  .                  .      .  .    ..        .       .                ",
"    .                  ..    .     . .        ..        .      .    .                        .. ..  .           .   .  . ..          .          .       .    .    ",
"    .         .            .   .         .  ...                    ..    .             .        ..        .        .  . ....          ..   ..  .             .    ",
"  .. .  .  .  .   ..        .          .          .           .                  ..        .  .                    .   .... .                 .             . .   ",
"            . ..       .               .    .  .   .         .  ..   .  .         ...       .        ...         .      .. .        .     .           ..       .. ",
"     ... .   ....   .  . .           ..        .   .        ..  .                   .      ..  .     .....  .   .       ....        . .  ..  ..        .    ..   .",
"          .  ...   .. ..    .      .   .         . .                              . ..  ...    ..   .. ..   .   .       ....                 .    .     .        .",
".            .. ..             ..  .                .   .   .        .          .       ...    ..    ......          .                     .                      ",
".          .   ..       ..    .      .      . .   .        .  ..     ..                 ..... .     .    .. .         .        .                                  ",
"          .    ..       .            .         .  .. .     .. .      ...       . ..     . . .   .          ...   .  .      .     .              .                 ",
" .        ..   . .                .              ... .     .  .     .            .         .               .  ......              .                     .         ",
"                .       .  .   .      .  ..        .     .                 . ...           .   .. ..          .....                  .                  ..    .   ",
"               ...     .  .      . .                    ...               .          .     .     ...         ......         .  . .   ..   ..            ..    .   ",
"       .      .....       .       .                   .  ....                 .  .  . .         .            ......           .         . .     .. .              ",
" . . . ..  .. .   ..  .       .        .                  ..               . ....       .  .     .. .      .  ....     .            .   .. ..  .  . .           ..",
"     . .       ..    .        .     .                   .                  . ....        ..      .      .     ...  ...             .     . .. ..          .      .",
" .    .. .. ..  .. .. . .         ..  ...               .  .                 .....     .            . .  .....    . . ..    .               .   ..               .",
"   .      .       .  .  .    .       . .        ..         ..   . .            .       .             ..   .      .  ...              .    .  . .       ...        ",
"         . .  .       .       .     .  .  ...               .      .       .                 .   .   ..        .   .  .       ..   . .    .   . .      ..   . .   ",
"     .              .  .      .    . .   .....     .... .         .         . ..                      ..                        .   .         .           .    .  ",
"       .   .    .      .             .   .. ..     .... .. .         .     . .  .                    ...            .             .   .          .         .. . . ",
"  .  .  .              .    .   .          ...     .... ..   ..  . . .    . ..  ..            .     . .   ..                     ...             .   .   . ... .. ",
"                            ..       .    ....      .    .     .           .              .   ..     ...  ..                    . ..           .      .  .....  . ",
"   . .                 .          . .. .     .          ..      .. . .   . . .      ..  .   ...   .          . . .            .   ..       .      ..  .    .. .   ",
"....  .                    .   .  .   . ..        . .   .  . . .... ...    ...   .  ..      .            .  ... .  . . .    .        ..    .     .   .  .    ..   ",
" .  .       . .        ..   .      ... ..  .       ...        .. . . .. .            .   ..  ..      . .   .       .. .  .  .      ... . .       .  .           ..",
" . .  .    .  ...      . .       ..  ....        .  ..     .    .. ..                       ..            ..     .       .  .     .   . .          .... . .     ..",
".  . .    ...  .   .     .       ...  ... .      ..    .   ...     . .      .      .                       .           .    ..     .  .         .  . .  .  ...   .",
". .   . .  ..                       . ..     .  . . ..      ..      ...              .          .                   ..           ..  ...       .           ....   ",
"       .     .                .      ...  . ..   ..      .. .. .     .     .         .                .            . .   .       .  ..                      ..    ",
"     .         .   .            .   . ...        .       .  .. .  .         .  .  .  ..              . .     . .  .. .   ...      ..         ..   . .        ...  ",
"      .         .               ..          .  . . .        .   ....  ..  . .   ... ...  .                .   .         . . ..    .          ..             .   . ",
"    .. .     .. .             . .. ..          .        .        ...  ....    . ..   ..      .  .          .   ..        .      .           ...   .       .     . ",
"        .. .       ..       .   . . .. .         ....           . . . .  .    .....      . .  .. ..  .     .  ... .             ..      .   .               ..    ",
".     . .              .     .     . .. .    .....  .                .....   ... .     .      .....  .         . .      .    .         .   ..                   . ",
"        .        ..              .   . ...     . ....  ..       .    ... .    .. ..          .....  .            ..    ..    .   . .       .      .      .   .    ",
"    .  . .  ..  .       .      .    . ..   .     ... . ..        ..    ....     ..           .. ...             .                     .    .              .      .",
" . ... .  ..   .                         ..       .. . .             .  ..       .      .  .  .. . .       .        .     .              ..                     . ",
" .  .. .  ..  ..           . .          .           . . .. .             .      .       . .   ...  .             .... . .  .          .  . .             .        ",
" .        .   ..               .                       . .. .  .     .      .. .  ...              .       .    . . .    ..         ...   ... ... ..        ..    ",
"  ..       .       ..             .                      ...                       ..            .       .    .    ..     ...       ..    ... . .        .        ",
" ..       ...      ..     .    .  .       .   ...  .          .            .. .  .         .            . .   .  .         .  . ..   ..    .   .. .               ",
"     . .   .        .    ...    . .           .  .         . ..   .      ..   ..        . .   .                ..               . ..          ..      .    .      ",
"    . ..             . ... .        .         . .. . ..      .    . .   .                .   .         .                         .. .. .               .          ",
"  .......           .  .... .                  .                  .. .  .  . ..             .           .     .     . .          . ..  .        .                 ",
"  ........  .    ...    ..     .     .             .     .       ...  .   .   .                               ..        .       .   .. .        .      .     .  . ",
" . ....... .       ..    .       . .       .            ....  ..  .      . .  ...                         ..  ... .    ...     .   . .  .                    .    ",
"    ... .           .     ..                    ..                 .        .. .          .                   ..      . .       .  .   ..                         ",
"   .  .. ..         ..    ..    .             .. .         .             .    .       .   .    .         .    ..       ...     . . .     .     .               .  ",
"        .               ..                ..  ..        ...     .           .                           .    .  .              .         ..                       "};
