/* XPM */
static char * Solaris_xpm[] = {
"114 89 8 1",
" 	c #574C8F",
".	c #5C519A",
"+	c #6559A6",
"@	c #4E4582",
"#	c #7368AF",
"$	c #453C72",
"%	c #8278B8",
"&	c #37305A",
"                                                                                                                  ",
"                                                                                                                  ",
"                                                                                                                  ",
"                                                                                                                  ",
"                                                                                                                  ",
"                                                                                                                  ",
"                                                                                                                  ",
"                                               .                                                                  ",
"                                               +.                                                                 ",
"                                               ++@                                                                ",
"                                               ##$@              .                                                ",
"                                               #%$$             .+                                                ",
"                                               #%$$             #. @                                              ",
"                                               #%@&            ## @$                                              ",
"                               +.              #% &@          +%+ &@                                              ",
"                                %.             #%.&$         .%%.$&                                               ",
"                                ++.            #%.&&         #%#@&$                                               ",
"                                 #..           %%.$&@       #%%+&&@                                               ",
"                                 .#            %%+@&@      .%%%$&&                                                ",
"                                  #. .         %%. &$     .%%%+&&$                                                ",
"                                  .#  .        %%  $&     #%%#$&&@                                                ",
"                                   ++          %%  @&@   +%%%.&&&                                                 ",
"                                    #   .      %%  @&$  .%%%+@&&$            +                                    ",
"                                    ++         %%   &&  %%%# $&&@         .+#.                                    ",
"                                     #     .  +%%   $& #%%%. &&&        .#%%.  @                                  ",
"                                     .#    .. +%% @@$& %%%. @&&$      +#%%#  $&@                                  ",
"                                      #+      .+@&&&&&@+%+  $&&@   .+%%%%#@$&&@                                   ",
"                      .               .#    @&@ @&&&&&& @$@ &&&  +#%%%%%.&&&&@                                    ",
"                      +%#++.           ++  $&&&@@$@     @$&@&&$+%%%%%%+$&&&$@                                     ",
"                        +%%%%#+.        # $&&&&@           $&$#%%%%#+ &&&&$                                       ",
"                        $$@+#%%%%%#+.   + &&&$              ..%%%#. @&&&&$                                        ",
"                         @$&@ .++#%%%%##+ &&$                #%+.  @&&&&@                                         ",
"                           @$$@    .+##%. @$                  +   $&&&&@                                          ",
"                             @&$@      @&$@                   ++ $&&&&@                                           ",
"                               @&$     &&&@                    %$&&&$@                                            ",
"                                 $&@   &&&                      $&&$                                              ",
"                                  @$&@ &&$                       &$                                               ",
"                                    @$$&&@                                                                        ",
"                                      @&&        .+++++######%%%%%%%%%%%%%%%%%%%%#####+++..                       ",
"                                        @.++##%%%%%%%%%%%%%%%%%%%%%####+++++++++++++++++++++.                     ",
"                                  +++#%%%%%%%%%%%%%%###+++  @@$&&&&&&&&&&&&&&&&&&&&&&&&$$$$@@                     ",
"                             .+#%%%%%%%%%%%##+++.   @@$&&&&&&&&&&&&&&&&&&$$$$$$$$$$$$$$$$$$$$$@                   ",
"                         .+#%%%%%%%%##++.       @$$&&&&&&&&&&&$$@@@                                               ",
"                       +#%%%%%%%#+.          @$&&&&&&&&&$$@                                                       ",
"                     +%%%%%%#+.            @&&&&&&&$$@                                                            ",
"                   .%%%%%#+              @&&&&&&$@                                                                ",
"                   #%%%#.               @&&&&&$                                                                   ",
"                   %%%.                 $&&&$                                                                     ",
"                   +%+                  @&&@                                                                      ",
"                    .@                   @@                                                                       ",
"                     $&$@                 .#+.                                                                    ",
"                      @&&&$@@              .#%%#+                                                                 ",
"                        @$&&&&&$@@           .+%%%%#++.                                                           ",
"                           @$&&&&&&&&$$$@@@     .+#%%%%%##++...                                                   ",
"                               @@$&&&&&&&&&&&&&&&$$$$@.+#########+++++.                                           ",
"                                     @@$$$&&&&&&&&&&&&&&&&&&$$@@@                                                 ",
"                                               @@@@$$$$$&&&&&&&&&&&$$$$$@@                                        ",
"                                                                                                                  ",
"                                                                                                                  ",
"           +++.                                                                                                   ",
"        .#%%%%%%#                                                                                                 ",
"       .%%.  @.##.                                                                                                ",
"       %%.@$&&&$ $&@                                                                                              ",
"      +%%@&&$   +$&@                                                                                              ",
"      +%%&&$     @&$     .++++      ..   ..              +           ....         .    .     .+++.                ",
"      +%#&&       &$   +%#++#%%#.   +#%%%#+            .%%        #%%%%#%%%#      #%%%%#.  .%#++%%#.#%%           ",
"      +%+@&       @@ .%%.  @$$ #%+    #%#  @@          +%%.@       .%%.@@ #%#      .#%+  @.%#  @$++@+%%           ",
"       %+ @         .%%. $&&$$$$ ..    .@&&&$          #%%@&        + &&&&$  @      + &&&&+%+@&&$@@&$@&&&         ",
"       +#  .+       #%+@&&$     +  @  +% &&           .%## &@       %#&&@  + @&@    %#&&$ #%.&&    && $&&         ",
"        +   .#+    +%% &&@      ++ $@ +%.&&           +# + &$       %%&&@  ##@&$    %%&&@ #%+&$    @&             ",
"          @   ++   #%%&&$        %.@& +%.&&           %+ @+$&       %%&&@  %%$&&    %%&&@ +%+@@     @             ",
"          @$    .  #%+&&@        ## &$+%.&&          .% $$% &@      %%&&@ +%#&&&    %%&&@  #+ .+                  ",
"           @$@   $ %%.&&         #% &&+%.&&          ## &@%+$$      %%$& #%# &&$    %%&&@   .  .#                 ",
"            @$@  $$%% &&         #%.&&+%.&&          %#+$+%#$&      %%@@#%% @&&     %%&&@    @@  +                ",
"               . @&#% &&         #% &&+%.&&         +%#. ##% &@     %%&&@## &$@     %%&&@     $$  @@              ",
"     .+        #.@& % &&         %%@&&+%.&&         ## &&$$+ &$     %%&&&@  &@      %%&&@      @@  &@             ",
"     +#        ##@&$%.$&        .%%$&&+%.&&        .%.@&&&& .@&     %%&&@ # @$      %%&&@..      + &$             ",
"     +% @      %%$&&#+ &@       #%#&&$+%.&&    +#  #% &$   +% &@    %%&&@ .+ $@     %%&&@+#      %+&&             ",
"     .%+$     +%#$&& # @$      +%# &&@#%.&&    #+  %#@&$    %+$$    %%&&@  +. $     %%&&@+% @   .%#&&             ",
"      %# .. .#%%.&&$    @.   .#%# $&&.%%+$$..+#%.@ %+$&    .##@&   +%%@&@   +  @   +%%@&@.%+@  .#%.&&             ",
"      .+@ #%%#+ $&&@   $$ #%%%#. @&&+###.@@#####. .##$$   .###@@  ####@@@     @ +.####@@@ ++ #%%# @&&             ",
"        &&&$@ @$&&@    @$&&$   @$&&@   @&&&$@@@@$&@ $&$      @&&&@   $&&$@    $&&$   $&&$@ @&&@  @&&@             ",
"        @$&&&&&&$@       @$&&&&&&@    $&&&&&&&&&&&@&&&&$    @&&&&&$ $&&&&&     $&&&@&&&&&&@ $&&&&&$@              ",
"                                                                                                                  ",
"                                                                                                                  ",
"                                                                                                                  ",
"                                                                                                                  ",
"                                                                                                                  ",
"                                                                                                                  "};
