/* XPM */
static char * Solid_xpm[] = {
"48 48 2 1",
" 	c #839db4",
".	c #cad5df",
".  ..     ..   ..       .  ..     ..   ..       ",
" ...     .     .         ...     .     .        ",
"....    .     .     .   ....    .     .     .   ",
" ...         .     .     ...         .     .    ",
".   .       .     .    ..   .       .     .    .",
"     .     .     .     .     .     .     .     .",
"      .  ..     .     .       .  ..     .     . ",
"       ...     .     .         ...     .     .  ",
"  .     .     ..    ..    .     .     .     ..  ",
"   .     .   .     . .     .     .   .     . .  ",
"    .     . .     .   .     .     . .     .   . ",
"     .     .     .     .     .     .     .     .",
".     .     .  .. .     .     .     .   . .     ",
" .     .     . .   .     .     .     . .   .    ",
"  .     .     .    ..     .     .    ..    ..   ",
"   .     .   . .     .     .     .   . .     .  ",
"    .     . .   .     .     .     . .   .     . ",
"     .     .     .     .     .     ..    .     .",
".     .   .     . .     .     .   .     . .     ",
" .     . .     .   .     .     . .     .   .    ",
"  .    ..     ..   ..     .    ..     .    ..   ",
"       .     .     ...         .     .     ...  ",
"      .     .     .   .       .     .     .   . ",
"     .     .     .     .    ..     ..    .     .",
".  ..     ..   ..       .  ..     ..   ..       ",
" ...     .     .         ...     .     .        ",
"....    .     .     .   ....    .     .     .   ",
" ...         .     .     ...         .     .    ",
".   .       .     .     .   .       .     .     ",
"     .     .     .     .     .     .     .     .",
"      .  ..     .     .       .  ..     .     . ",
"       ...     .     .         ...     .     .  ",
"  .     .     .     ...   .     .     ..   ...  ",
"   .     .   .     . .     .     .   .     . .  ",
"    .     . .    ..   .     .     . .     .   . ",
"     .     .     .     .     .     .     .     .",
".     .     .   . .     .     .     .  .. .     ",
" .     .     . .   .     .     .     . .   .    ",
"  .     .     .     .     .     .     .     .   ",
"   .     .  .. .     .     .     .   . .     .  ",
"    .     . ..  .     .     .     . .   .     . ",
"     .     .     ..    .     .     .     .     .",
".     .   .     . .     .     .   .     ...     ",
" .     . .     .   .     .     . .     .   .    ",
"  .    ..     .     .     .    ..     ..    .   ",
"       .     .     ...         .     .     ...  ",
"      .     .     .  ..       .     .     . . . ",
"     .     .     .     .     .     .     .     ."};
