/* XPM */
static char *closeI[] = {
/* columns rows colors chars-per-pixel */
"24 48 6 1 ",
"  c #4E4E4E",
". c #5A636B",
"X c gray60",
"o c #ADB5C6",
"O c #D1D1D2",
"+ c #DEDEE7",
/* pixels */
"OOOOOOOOOOOOOOOOOOOOOOO ",
"OXXXXXXXXXXXXXXXXXXXXXX ",
"OXXXXXXXXXXXXXXXXXXXXXX ",
"OXXXXXXXXXXXXXXXXXXXXXX ",
"OXXXXXXXXXXXXXXXXXXXXXX ",
"OXXXXOOOXXXXXXXXXOO XXX ",
"OXXXXOXXOOXXXXXXOXX XXX ",
"OXXXXOXXXXOXXXOOXXX XXX ",
"OXXXXX XXXXOXOXXXX XXXX ",
"OXXXXX XXXXOXOXXXX XXXX ",
"OXXXXXX XXXXOXXXX XXXXX ",
"OXXXXXXX  XXXXXX XXXXXX ",
"OXXXXXXXXX XXXOOXXXXXXX ",
"OXXXXXXXOOXXXXXXOXXXXXX ",
"OXXXXXXOXXXX XXXXOXXXXX ",
"OXXXXXXOXXXX XXXXOXXXXX ",
"OXXXXXOXXXX X XXXXOXXXX ",
"OXXXXOXXXX XXX  XXX XXX ",
"OXXXX XX  XXXXXX XX XXX ",
"OXXXX   XXXXXXXXX   XXX ",
"OXXXXXXXXXXXXXXXXXXXXXX ",
"OXXXXXXXXXXXXXXXXXXXXXX ",
"OXXXXXXXXXXXXXXXXXXXXXX ",
"O                       ",
"                       O",
" ooooooooooooooooooooooO",
" ooooooooooooooooooooooO",
" ooooooooooooooooooooooO",
" ooooooooooooooooooooooO",
" oooo+++ooooooooo++.oooO",
" oooo+oo++oooooo+oo.oooO",
" oooo+oooo+ooo++ooo.oooO",
" ooooo.oooo+o+oooo.ooooO",
" ooooo.oooo+o+oooo.ooooO",
" oooooo.oooo+oooo.oooooO",
" ooooooo..oooooo.ooooooO",
" ooooooooo.ooo++oooooooO",
" ooooooo++oooooo+ooooooO",
" oooooo+oooo.oooo+oooooO",
" oooooo+oooo.oooo+oooooO",
" ooooo+oooo.o.oooo+ooooO",
" oooo+oooo.ooo..ooo.oooO",
" oooo.oo..oooooo.oo.oooO",
" oooo...ooooooooo...oooO",
" ooooooooooooooooooooooO",
" ooooooooooooooooooooooO",
" ooooooooooooooooooooooO",
" OOOOOOOOOOOOOOOOOOOOOOO"
};
