/* XPM */
static char *dframeIL[] = {
/* columns rows colors chars-per-pixel */
"6 1 3 1 ",
"  c #5A636B",
". c #ADB5C6",
"X c #DEDEE7",
/* pixels */
"XX... "
};
