/* XPM */
static char *frameATL[] = {
/* columns rows colors chars-per-pixel */
"31 32 4 1 ",
"  c #44446B",
". c #63639C",
"X c #8484C1",
"o c None",
/* pixels */
"XXXXXXXXXXXXXXXXXXXXXXXXXXXXXXX",
"XXXXXXXXXXXXXXXXXXXXXXXXXXXXX X",
"XX........................... X",
"XX........................... X",
"XX........................... X",
"XX...                          ",
"XX... ooooooooooooooooooooooooo",
"XX... ooooooooooooooooooooooooo",
"XX... ooooooooooooooooooooooooo",
"XX... ooooooooooooooooooooooooo",
"XX... ooooooooooooooooooooooooo",
"XX... ooooooooooooooooooooooooo",
"XX... ooooooooooooooooooooooooo",
"XX... ooooooooooooooooooooooooo",
"XX... ooooooooooooooooooooooooo",
"XX... ooooooooooooooooooooooooo",
"XX... ooooooooooooooooooooooooo",
"XX... ooooooooooooooooooooooooo",
"XX... ooooooooooooooooooooooooo",
"XX... ooooooooooooooooooooooooo",
"XX... ooooooooooooooooooooooooo",
"XX... ooooooooooooooooooooooooo",
"XX... ooooooooooooooooooooooooo",
"XX... ooooooooooooooooooooooooo",
"XX... ooooooooooooooooooooooooo",
"XX... ooooooooooooooooooooooooo",
"XX... ooooooooooooooooooooooooo",
"XX... ooooooooooooooooooooooooo",
"XX... ooooooooooooooooooooooooo",
"XX... ooooooooooooooooooooooooo",
"      ooooooooooooooooooooooooo",
"XXXXX ooooooooooooooooooooooooo"
};
