/* XPM */
static char *frameITR[] = {
/* columns rows colors chars-per-pixel */
"31 32 5 1 ",
"  c #4E4E4E",
". c #5A636B",
"X c #ADB5C6",
"o c #DEDEE7",
"O c None",
/* pixels */
" ooooooooooooooooooooooooooooo.",
" oooooooooooooooooooooooooooo..",
" oXXXXXXXXXXXXXXXXXXXXXXXXXXX..",
" oXXXXXXXXXXXXXXXXXXXXXXXXXXX..",
" oXXXXXXXXXXXXXXXXXXXXXXXXXXX..",
" o........................XXX..",
"OOOOOOOOOOOOOOOOOOOOOOOOOoXXX..",
"OOOOOOOOOOOOOOOOOOOOOOOOOoXXX..",
"OOOOOOOOOOOOOOOOOOOOOOOOOoXXX..",
"OOOOOOOOOOOOOOOOOOOOOOOOOoXXX..",
"OOOOOOOOOOOOOOOOOOOOOOOOOoXXX..",
"OOOOOOOOOOOOOOOOOOOOOOOOOoXXX..",
"OOOOOOOOOOOOOOOOOOOOOOOOOoXXX..",
"OOOOOOOOOOOOOOOOOOOOOOOOOoXXX..",
"OOOOOOOOOOOOOOOOOOOOOOOOOoXXX..",
"OOOOOOOOOOOOOOOOOOOOOOOOOoXXX..",
"OOOOOOOOOOOOOOOOOOOOOOOOOoXXX..",
"OOOOOOOOOOOOOOOOOOOOOOOOOoXXX..",
"OOOOOOOOOOOOOOOOOOOOOOOOOoXXX..",
"OOOOOOOOOOOOOOOOOOOOOOOOOoXXX..",
"OOOOOOOOOOOOOOOOOOOOOOOOOoXXX..",
"OOOOOOOOOOOOOOOOOOOOOOOOOoXXX..",
"OOOOOOOOOOOOOOOOOOOOOOOOOoXXX..",
"OOOOOOOOOOOOOOOOOOOOOOOOOoXXX..",
"OOOOOOOOOOOOOOOOOOOOOOOOOoXXX..",
"OOOOOOOOOOOOOOOOOOOOOOOOOoXXX..",
"OOOOOOOOOOOOOOOOOOOOOOOOOoXXX..",
"OOOOOOOOOOOOOOOOOOOOOOOOOoXXX..",
"OOOOOOOOOOOOOOOOOOOOOOOOOoXXX..",
"OOOOOOOOOOOOOOOOOOOOOOOOOoXXX..",
"OOOOOOOOOOOOOOOOOOOOOOOOOo.....",
"OOOOOOOOOOOOOOOOOOOOOOOOOooooo."
};
