/* XPM */
static char *maximizeA[] = {
/* columns rows colors chars-per-pixel */
"24 48 3 1 ",
"  c #44446B",
". c #63639C",
"X c #8484C1",
/* pixels */
"XXXXXXXXXXXXXXXXXXXXXXX ",
"X...................... ",
"X...................... ",
"X...................... ",
"X...................... ",
"X...................... ",
"X......XXXXXXXXXXX..... ",
"X......X......... ..... ",
"X......X......... ..... ",
"X......X......... ..... ",
"X......X......... ..... ",
"X......X......... ..... ",
"X......X......... ..... ",
"X......X......... ..... ",
"X......X......... ..... ",
"X......X......... ..... ",
"X......X......... ..... ",
"X......X......... ..... ",
"X......           ..... ",
"X...................... ",
"X...................... ",
"X...................... ",
"X...................... ",
"X                       ",
"                       X",
" ......................X",
" ......................X",
" ......................X",
" ......................X",
" ......................X",
" ......XXXXXXXXXXX.....X",
" ......X......... .....X",
" ......X......... .....X",
" ......X......... .....X",
" ......X......... .....X",
" ......X......... .....X",
" ......X......... .....X",
" ......X......... .....X",
" ......X......... .....X",
" ......X......... .....X",
" ......X......... .....X",
" ......X......... .....X",
" ......           .....X",
" ......................X",
" ......................X",
" ......................X",
" ......................X",
" XXXXXXXXXXXXXXXXXXXXXXX"
};
