/* XPM */
static char *minimizeI[] = {
/* columns rows colors chars-per-pixel */
"24 48 4 1 ",
"  c #4E4E4E",
". c #5A636B",
"X c #ADB5C6",
"o c #DEDEE7",
/* pixels */
"ooooooooooooooooooooooo.",
"oXXXXXXXXXXXXXXXXXXXXXX.",
"oXXXXXXXXXXXXXXXXXXXXXX.",
"oXXXXXXXXXXXXXXXXXXXXXX.",
"oXXXXXXXXXXXXXXXXXXXXXX.",
"oXXXXXXXXXXXXXXXXXXXXXX.",
"oXXXXXXXXXXXXXXXXXXXXXX.",
"oXXXXXXXXXXXXXXXXXXXXXX.",
"oXXXXXXXXXXXXXXXXXXXXXX.",
"oXXXXXXXXXXXXXXXXXXXXXX.",
"oXXXXXXXXXoooo XXXXXXXX.",
"oXXXXXXXXXoXXX XXXXXXXX.",
"oXXXXXXXXXoXXX XXXXXXXX.",
"oXXXXXXXXXoXXX XXXXXXXX.",
"oXXXXXXXXXo    XXXXXXXX.",
"oXXXXXXXXXXXXXXXXXXXXXX.",
"oXXXXXXXXXXXXXXXXXXXXXX.",
"oXXXXXXXXXXXXXXXXXXXXXX.",
"oXXXXXXXXXXXXXXXXXXXXXX.",
"oXXXXXXXXXXXXXXXXXXXXXX.",
"oXXXXXXXXXXXXXXXXXXXXXX.",
"oXXXXXXXXXXXXXXXXXXXXXX.",
"oXXXXXXXXXXXXXXXXXXXXXX.",
"o.......................",
".......................o",
".XXXXXXXXXXXXXXXXXXXXXXo",
".XXXXXXXXXXXXXXXXXXXXXXo",
".XXXXXXXXXXXXXXXXXXXXXXo",
".XXXXXXXXXXXXXXXXXXXXXXo",
".XXXXXXXXXXXXXXXXXXXXXXo",
".XXXXXXXXXXXXXXXXXXXXXXo",
".XXXXXXXXXXXXXXXXXXXXXXo",
".XXXXXXXXXXXXXXXXXXXXXXo",
".XXXXXXXXXXXXXXXXXXXXXXo",
".XXXXXXXXXoooo XXXXXXXXo",
".XXXXXXXXXoXXX XXXXXXXXo",
".XXXXXXXXXoXXX XXXXXXXXo",
".XXXXXXXXXoXXX XXXXXXXXo",
".XXXXXXXXXo    XXXXXXXXo",
".XXXXXXXXXXXXXXXXXXXXXXo",
".XXXXXXXXXXXXXXXXXXXXXXo",
".XXXXXXXXXXXXXXXXXXXXXXo",
".XXXXXXXXXXXXXXXXXXXXXXo",
".XXXXXXXXXXXXXXXXXXXXXXo",
".XXXXXXXXXXXXXXXXXXXXXXo",
".XXXXXXXXXXXXXXXXXXXXXXo",
".XXXXXXXXXXXXXXXXXXXXXXo",
".ooooooooooooooooooooooo"
};
