/* XPM */
static char *restoreI[] = {
/* columns rows colors chars-per-pixel */
"24 48 3 1 ",
"  c #5A636B",
". c #ADB5C6",
"X c #DEDEE7",
/* pixels */
"XXXXXXXXXXXXXXXXXXXXXXX ",
"X...................... ",
"X...................... ",
"X...................... ",
"X...................... ",
"X...................... ",
"X.....             .... ",
"X..... ...........X.... ",
"X..... ...........X.... ",
"X..... ...........X.... ",
"X..... ...........X.... ",
"X..... ...........X.... ",
"X..... ...........X.... ",
"X..... ...........X.... ",
"X..... ...........X.... ",
"X..... ...........X.... ",
"X..... ...........X.... ",
"X..... ...........X.... ",
"X.....XXXXXXXXXXXXX.... ",
"X...................... ",
"X...................... ",
"X...................... ",
"X...................... ",
"X                       ",
"                       X",
" ......................X",
" ......................X",
" ......................X",
" ......................X",
" ......................X",
" .....             ....X",
" ..... ...........X....X",
" ..... ...........X....X",
" ..... ...........X....X",
" ..... ...........X....X",
" ..... ...........X....X",
" ..... ...........X....X",
" ..... ...........X....X",
" ..... ...........X....X",
" ..... ...........X....X",
" ..... ...........X....X",
" ..... ...........X....X",
" .....XXXXXXXXXXXXX....X",
" ......................X",
" ......................X",
" ......................X",
" ......................X",
" XXXXXXXXXXXXXXXXXXXXXXX"
};
